<svg xmlns="http://www.w3.org/2000/svg" viewBox="0 0 686.7 369.2"><defs><style>.a{fill:none;stroke:#666;stroke-miterlimit:10;stroke-width:2px;}</style></defs><title>FamilyWizardStartLogo</title><circle class="a" cx="98.4" cy="46.7" r="33"/><polyline class="a" points="119.9 83.8 65.1 84.4 65.1 84.4 27 1.3 4.2 10.8 54.3 120.1 1.4 294 41.8 293.7 39.4 364.7 66.8 368.1 73.7 293.5 107.6 293.3 113.4 367.9 141.4 365.7 139.5 293 180.4 292.7 159.4 203.2 150.8 206.5"/><polyline class="a" points="150.8 206.5 159.4 203.2 178.8 195.6 140 84.2 119.9 83.8 119.9 83.8 119.9 83.8"/><line class="a" x1="150.4" y1="206.9" x2="120.4" y2="112.9"/><circle class="a" cx="415.9" cy="137.5" r="23.6"/><polygon class="a" points="485.4 314.6 456.4 314.4 458.2 365.3 438.5 367.7 433.6 314.3 409.3 314.1 405.1 367.5 385.1 366 386.4 313.9 357.1 313.7 388.3 180.6 313.7 142.8 321.4 127.6 393.3 164 439.8 164.8 439.8 164.8 512.6 131.3 520.2 147.4 445.3 182.8 485.4 314.6"/><circle class="a" cx="579.7" cy="59.4" r="33"/><polygon class="a" points="685.7 34.4 685.7 98.4 664.4 107.4 613.7 120.7 613.7 256.1 647.3 358.6 619.5 367.7 583.3 257.4 579.9 257.5 579.9 257.5 533.8 365 505.2 352.7 546.7 256.7 546.7 96.4 610.7 96.4 662.7 82.8 662.7 34.4 685.7 34.4"/><polygon class="a" points="547 97.4 547 97.4 546.7 158.2 522.5 214.2 500.2 204.5 546.6 97.1 547 97.4"/><circle class="a" cx="266.7" cy="245.2" r="21.8"/><polygon class="a" points="293.3 330.1 293.6 340.1 349.8 319.8 353.3 339.2 270.1 367.5 270.1 367.5 183.7 340.1 183.2 319.8 241.5 340.1 241.5 298.1 184 319.1 177.7 297.8 241.8 271.6 242 271.4 293.7 271.4 293.7 271.4 293.7 271.4 355.7 299.8 350.1 319.8 293.6 297.3 293.3 330.1"/></svg>
