<svg xmlns="http://www.w3.org/2000/svg" xmlns:xlink="http://www.w3.org/1999/xlink" viewBox="0 0 686.7 462.2"><defs><style>.a,.b{fill:none;stroke:#666;stroke-miterlimit:10;}.a{stroke-width:2px;}.c{fill:url(#a);}.d{fill:#666;}.e{fill:url(#b);}</style><linearGradient id="a" x1="-4984.07" y1="5260.74" x2="-4975.71" y2="5248.07" gradientTransform="matrix(1, 0, 0, -1, 5168.5, 5385.31)" gradientUnits="userSpaceOnUse"><stop offset="0" stop-color="#e9ea14"/><stop offset="0.06" stop-color="#e9ea14" stop-opacity="0.94"/><stop offset="0.18" stop-color="#e9ea14" stop-opacity="0.79"/><stop offset="0.34" stop-color="#e9ea14" stop-opacity="0.55"/><stop offset="0.54" stop-color="#e9ea14" stop-opacity="0.21"/><stop offset="0.66" stop-color="#e9ea14" stop-opacity="0"/></linearGradient><linearGradient id="b" x1="-4850.19" y1="5345.57" x2="-4841.83" y2="5332.9" xlink:href="#a"/></defs><title>FamilyWizardFinishLogo_1</title><circle class="a" cx="98.4" cy="139.8" r="33"/><polyline class="a" points="119.9 176.8 65.1 177.5 65.1 177.5 27 94.3 4.2 103.9 54.3 213.2 1.4 387.1 41.8 386.8 39.4 457.8 66.8 461.1 73.7 386.5 107.6 386.3 113.4 460.9 141.4 458.8 139.5 386.1 180.4 385.8 159.4 296.2 150.8 299.5"/><polyline class="a" points="150.8 299.5 159.4 296.2 178.8 288.6 140 177.2 119.9 176.8 119.9 176.8 119.9 176.8"/><line class="a" x1="150.4" y1="300" x2="120.4" y2="206"/><circle class="a" cx="415.9" cy="230.5" r="23.6"/><polygon class="a" points="485.4 407.7 456.4 407.5 458.2 458.3 438.5 460.7 433.6 407.3 409.3 407.1 405.1 460.6 385.1 459.1 386.4 407 357.1 406.8 388.3 273.6 313.7 235.8 321.4 220.6 393.3 257 439.8 257.8 439.8 257.8 512.6 224.4 520.2 240.5 445.3 275.8 485.4 407.7"/><circle class="a" cx="579.7" cy="152.5" r="33"/><polygon class="a" points="685.7 127.5 685.7 191.5 664.4 200.5 613.7 213.8 613.7 349.1 647.3 451.6 619.5 460.8 583.3 350.5 579.9 350.6 579.9 350.6 533.8 458.1 505.2 445.7 546.7 349.7 546.7 189.5 610.7 189.5 662.7 175.8 662.7 127.5 685.7 127.5"/><polygon class="a" points="547 190.5 547 190.5 546.7 251.2 522.5 307.2 500.2 297.6 546.6 190.2 547 190.5"/><circle class="a" cx="266.7" cy="338.3" r="21.8"/><polygon class="a" points="293.3 423.1 293.6 433.1 349.8 412.8 353.3 432.2 270.1 460.6 270.1 460.6 183.7 433.1 183.2 412.9 241.5 433.1 241.5 391.1 184 412.1 177.7 390.8 241.8 364.6 242 364.5 293.7 364.5 293.7 364.5 293.7 364.5 355.7 392.8 350.1 412.8 293.6 390.3 293.3 423.1"/><path class="a" d="M237.5,138.8c-2.4,34.9-35.8,73.8-43.1,73.9-10.3.2-40.5-46.8-43.4-63.4C142.9,102,169.7,88,193.6,88,211.2,88,239.8,106,237.5,138.8Z"/><path class="a" d="M183.4,102.7s-8,3.7-13,9-6.1,9.1-6.1,9.1"/><path class="a" d="M196.5,214.2l2.9,3.6a2.5,2.5,0,0,1-2,4.1h-5.8a2.5,2.5,0,0,1-1.9-4.2l2.9-3.5A2.6,2.6,0,0,1,196.5,214.2Z"/><path class="a" d="M371.5,51.8c-2.4,34.9-35.8,73.8-43.1,73.9-10.4.2-40.5-46.8-43.4-63.4C276.9,15,303.6,1,327.6,1,345.2,1,373.8,19,371.5,51.8Z"/><path class="a" d="M330.5,127.2l2.9,3.6a2.5,2.5,0,0,1-2,4.1h-5.9a2.6,2.6,0,0,1-1.9-4.2l3-3.5A2.6,2.6,0,0,1,330.5,127.2Z"/><line class="b" x1="327.7" y1="134.4" x2="327.7" y2="223.4"/><line class="b" x1="194.7" y1="221.4" x2="193.7" y2="384.4"/><path class="c" d="M196.2,128.9l-1.1.9a6.6,6.6,0,0,0-7.7-5.1,6.4,6.4,0,0,0-1.8,12l-1.2.9a7.8,7.8,0,0,1-2-10.8,7.7,7.7,0,0,1,6.4-3.4A7.8,7.8,0,0,1,196.2,128.9Z"/><path class="d" d="M221.7,146.2a14.7,14.7,0,0,1-.8-2.8,34.6,34.6,0,0,1-.4-8.5c.1-1.7.2-3.4.4-5l.2-1.6c.1-.2,0-.5-.2-.5h-.1c-.3-.1-.4,0-.5.3v.3a25.4,25.4,0,0,0-.4,2.9,44.9,44.9,0,0,0-.4,6.4h-.2a1.4,1.4,0,0,0-2,.3,8.3,8.3,0,0,0-.8,1.2,11,11,0,0,0-.7,4.4c0,.6,0,.6-.6.6s-.6,0-.6-.5.1-.1.1-.2l.3-1.7a2.4,2.4,0,0,0-.3-2,4.7,4.7,0,0,0-.6-.9,3.2,3.2,0,0,1-.5-1.9c0-.2-.2-.5-.4-.5s-.4.1-.5.3a2,2,0,0,0,0,1.1,1.3,1.3,0,0,1,.1.6,25.7,25.7,0,0,1-1.4,6.1c0,.2-.1.1-.2,0a1.1,1.1,0,0,1-.2-.6,8.3,8.3,0,0,1-.3-2.2c.1-1.1.2-2.1.4-3.2s0-.4-.3-.5a.5.5,0,0,0-.5.3c-.1.2-.1.5-.2.7s0,.2-.1.1a2.4,2.4,0,0,0-1.3.6,4.9,4.9,0,0,0-1.2,3.7c0,.2.2.4,0,.6h-.7c-.4,0-.5-.1-.4-.5a20,20,0,0,0,.4-2.1,2.6,2.6,0,0,0-.3-1.7l-.6-1a2.8,2.8,0,0,1-.6-1.8v-.2a.5.5,0,0,0-.5-.4l-.3.2a1.1,1.1,0,0,0-.2.8,5,5,0,0,1,.2,1.2,25.6,25.6,0,0,1-1,4.8c0,.1,0,.2-.2.2s-.2,0-.2-.1a.4.4,0,0,0-.6-.1h-2.4a15.8,15.8,0,0,0,1.6-2.6,3.5,3.5,0,0,0,.1-2,.9.9,0,0,0-.6-1,1.1,1.1,0,0,0-1.1.3,2.7,2.7,0,0,0-.9,1.2,7.2,7.2,0,0,0-.4,4.1c0,.2-.2,0-.2,0h-1.2a4.4,4.4,0,0,0-.2-1,7.1,7.1,0,0,0-1.4-3.2,1,1,0,0,0-1-.4,5.2,5.2,0,0,0-1.3.6l-3.7,2.1a8.2,8.2,0,0,1-2.6,1,1.2,1.2,0,0,1-1.5-.7v-.2a4.9,4.9,0,0,1-.1-1.2,10.3,10.3,0,0,1,1.9-4.1,9.2,9.2,0,0,1,5.4-4,6.4,6.4,0,0,1,2-.3c.8.1.9.4.9.9s.1.1.1.1.2.5.5.4.3-.2.3-.4h0a1.7,1.7,0,0,0-1.5-1.8h-.9a10.6,10.6,0,0,0-4,1.4,12.4,12.4,0,0,0-5.3,7.2,3.9,3.9,0,0,0-.1,2.4,2,2,0,0,0,1.9,1.4l1.3-.3a18.7,18.7,0,0,0,3.2-1.5c1.2-.6,2.3-1.4,3.6-1.9h.3a2.4,2.4,0,0,1,.6.9,13.8,13.8,0,0,1,.8,2.7c0,.3,0,.3-.3.4a29.5,29.5,0,0,0-5,1,20.5,20.5,0,0,0-4.1,1.6,6.1,6.1,0,0,0-2.7,2.8,2,2,0,0,0-.3,1.1,5.2,5.2,0,0,0,2.1,3.7,9.1,9.1,0,0,0,5.3,1.5,5.7,5.7,0,0,0,4.8-2.9,10.9,10.9,0,0,0,1.2-4.7,17.1,17.1,0,0,0,0-3.2c-.1-.2.2-.2.2-.2h1s.4-.1.5.1a1.6,1.6,0,0,0,2.6.4l.6-.5c.2-.2.4-.1.6-.1s0,.2,0,.3a.6.6,0,0,0,.4.5.4.4,0,0,0,.4-.4,20.8,20.8,0,0,0,1.1-4.1l.3-1.4a2.4,2.4,0,0,1,.6,2.3c0,.2-.1.5-.1.7a8,8,0,0,0-.3,1.5,1,1,0,0,0,.7.9h1.7c.1,0,.2-.2.4-.2a1.4,1.4,0,0,0,1.2-.7,3.5,3.5,0,0,0,.5-.8c0,.2,0,.3.1.4a2.8,2.8,0,0,0,.4,1.3,1.1,1.1,0,0,0,1,.6c.3,0,.6-.4.7-.6a18.1,18.1,0,0,0,.9-3.1,20,20,0,0,0,.4-2.4,2.6,2.6,0,0,1,.7,2.5,10.6,10.6,0,0,0-.4,1.9c0,.6,1,1.2,1,1.2h1.1s.2-.2.3-.1a1.4,1.4,0,0,0,2.3.1,5.9,5.9,0,0,0,1.3-1.8c.1-.1.1-.2.3-.2a13.3,13.3,0,0,0,1,3.4.5.5,0,0,0,.5.4C221.8,146.7,221.8,146.4,221.7,146.2ZM196,151.7a6.4,6.4,0,0,1-1.3,1.9,4.4,4.4,0,0,1-2.4,1.1,8.6,8.6,0,0,1-5-.9,5,5,0,0,1-1.9-1.9,2.6,2.6,0,0,1,.2-2.9,6.7,6.7,0,0,1,2.8-2.2,32.1,32.1,0,0,1,7.5-2.1h.6c.2-.1.3.1.3.3s.1,1.3.1,2.2A12.5,12.5,0,0,1,196,151.7Zm3.6-8.9a6.4,6.4,0,0,1,.5-3.6l.4-.4c.2-.1.4-.2.6.1s.1.4,0,.6A6.7,6.7,0,0,1,199.6,142.8Zm.5,1.4h1.4a.7.7,0,0,1-1.1.3Q200.1,144.4,200.1,144.2Zm9.9-4a17,17,0,0,1-1,3.2l-.2.3-.2.2c-.2,0-.2-.2-.2-.3v-.8a3.8,3.8,0,0,1,.4-2.1,1.6,1.6,0,0,1,.8-.8.2.2,0,0,1,.4.1A.1.1,0,0,1,210,140.2Zm9.6,1.9-1.1,2a1.4,1.4,0,0,1-1.2.6c-.2,0-.2,0-.3-.2a3.5,3.5,0,0,1-.5-2,10.8,10.8,0,0,1,1-3.5l.3-.4a.9.9,0,0,1,1-.5,1.2,1.2,0,0,1,.9.8,5.5,5.5,0,0,1,.2,1.8A1.7,1.7,0,0,1,219.6,142.1Z"/><path class="d" d="M164.8,141a19.9,19.9,0,0,0-3.2-3.3,20.9,20.9,0,0,1-2-2.2,2.3,2.3,0,0,1,.1-3,9.9,9.9,0,0,1,2.9-2.5,6.4,6.4,0,0,1,2.7-1.1c.3-.1.5-.2.4-.5a.5.5,0,0,0-.5-.4H165a6.6,6.6,0,0,0-2.7,1.2,13.5,13.5,0,0,0-3.2,2.6,3.2,3.2,0,0,0-.5,3.7,10.9,10.9,0,0,0,1.3,1.7A28,28,0,0,0,163,140a13.3,13.3,0,0,1,1.4,1.9h-.3a14.9,14.9,0,0,0-5.9.9,4.1,4.1,0,0,0-2.1,2,1.7,1.7,0,0,0,.2,2,3.7,3.7,0,0,0,3.8,1.4,7.1,7.1,0,0,0,5.1-3.5,2.6,2.6,0,0,0,.1-2.9Zm-.2,3.2a6.2,6.2,0,0,1-5,3.2,3,3,0,0,1-2.2-.6,1.4,1.4,0,0,1-.5-1.9l.2-.3a2.4,2.4,0,0,1,1.4-1,10.8,10.8,0,0,1,5-.9h1.1c.2,0,.2,0,.2.2A2,2,0,0,1,164.6,144.2Z"/><path class="d" d="M232.9,144.3c0-.2-.3-.3-.6-.2l-1.1.3H231a27.7,27.7,0,0,1-1-2.6,7.6,7.6,0,0,1-.1-3,2.4,2.4,0,0,0,.2-1.3c0-.5,0-.4-.3-.5a.5.5,0,0,0-.5.3.4.4,0,0,1-.1.3,6.9,6.9,0,0,1-.3,1.6c-.5,1.8-.8,3.7-2.3,5.1a.5.5,0,0,1-.7,0l-.3-.5a12.7,12.7,0,0,1-.1-2,14.9,14.9,0,0,0,.2-2.1c.1-.7,0-.5-.3-.5s-.5.1-.5.4-.3,1.2-.5,1.8a7.7,7.7,0,0,1-1,2.5,1.2,1.2,0,0,1-.6.6c-.1.1-.2.1-.3-.1V144a10.3,10.3,0,0,1-.1-1.7l.3-2.9a.5.5,0,0,0-.3-.5h-.1a.7.7,0,0,0-.5.4v.6a20,20,0,0,0-.2,3.5,2.4,2.4,0,0,0,.5,1.8.7.7,0,0,0,.7.2,3.1,3.1,0,0,0,1.1-.9,4.7,4.7,0,0,0,.7-1.2.4.4,0,0,1,.1-.3,2.9,2.9,0,0,0,.4,1.6,1.4,1.4,0,0,0,2,.3.2.2,0,0,0,.2-.2,11.4,11.4,0,0,0,1.8-3,6.9,6.9,0,0,0,.5,1.3c.2.5.3,1,.5,1.4s0,.3-.2.3l-1.1.4a4.2,4.2,0,0,0-1.6,1.1.9.9,0,0,0,0,1.2,2.2,2.2,0,0,0,2.3.8,2.3,2.3,0,0,0,1.7-2.7c0-.2.1-.3.4-.4l1-.2c.3,0,.4-.3.4-.5Zm-4.1,3.1a1.1,1.1,0,0,1-.8-.3c-.1-.2-.2-.3,0-.5a3.2,3.2,0,0,1,1.6-.9h.3c.5-.2.5-.2.5.4S229.7,147.4,228.8,147.4Z"/><path class="d" d="M170.4,144.7l-.7.8-.8.5a1,1,0,0,1-1.4-.4h0a3.6,3.6,0,0,1-.4-.9v.6s-.1.5-.3.5a.5.5,0,0,1-.4-.5h0c.2-2.1.4-4.2.5-6.2a.4.4,0,0,1,.4-.4h.1c.2,0,.1.4.1.4v1.5a26.9,26.9,0,0,0,.3,4l.2.5c.1.4.4.5.8.2a2.4,2.4,0,0,0,.8-.9c.1-.1.3-.3.5-.2s.2,0,.2-.1a25.7,25.7,0,0,1-.1-4.8.7.7,0,0,1,.1-.5h.4c.2.1.4.2.4.4v1.1a16.2,16.2,0,0,1-.1,2.2c0,.1,0,.2.1.2a7.6,7.6,0,0,1,.9-1.8l.3-.6a.6.6,0,0,1,.7-.3c.3,0,.4.2.5.4a9.8,9.8,0,0,1,.5,2.2,3.4,3.4,0,0,0,.8,1.7.2.2,0,0,1,.1.4h-.1c-.1.2-.3.2-.5.1h-.1l-.6-.8a18.9,18.9,0,0,1-.5-2.3c-.1-.3-.1-.5-.2-.8l-.5.8c-.4,1-.7,2-1,3a.4.4,0,0,0-.1.3c-.1.2-.1.4-.4.4s-.4-.2-.4-.4S170.4,144.8,170.4,144.7Z"/><path class="d" d="M176.3,139.3l1.7-.6h.2c.2,0,.4,0,.5.2a.4.4,0,0,1-.1.5h-.3a6,6,0,0,1-1.9.6c-.1,0-.2,0-.2.2a18.2,18.2,0,0,0-.1,3.3,3.2,3.2,0,0,0,.3,1.4.5.5,0,0,0,.7.5l.8-.4.8-.8c.3-.2.5-.2.7,0a.5.5,0,0,1-.1.6h0l-1.9,1.3a1.2,1.2,0,0,1-1.6-.4c-.1,0-.1-.1-.1-.2a5.1,5.1,0,0,1-.4-2.7v-2.4c0-.2,0-.3-.2-.3a1.5,1.5,0,0,1-.9-.4c-.2-.2-.2-.5,0-.6h0a.6.6,0,0,1,.8,0h0c.1.2.2.2.3.2s.1-.2.1-.3.3-3.3.6-4.9.2-.5.5-.4a.5.5,0,0,1,.4.5h-.1c-.2,1.6-.4,3.1-.5,4.7S176.3,139.1,176.3,139.3Z"/><path class="d" d="M183.2,139.8c.4-.1.7.1.7.3s-.1.4-.5.5l-3.4.4c-.4,0-.6-.1-.6-.4a.4.4,0,0,1,.4-.4Z"/><path class="d" d="M167.2,137.4c-.4,0-.5-.2-.5-.4s.2-.4.5-.4.5.1.5.3a.5.5,0,0,1-.5.5Z"/><path class="a" d="M318.1,16s-8,3.7-13.1,9-6,9.1-6,9.1"/><path class="e" d="M330.1,44.1l-1.2.8a6.4,6.4,0,0,0-7.6-5,6.5,6.5,0,0,0-5.1,7.6,6.6,6.6,0,0,0,3.2,4.4l-1.1.8a7.7,7.7,0,1,1,11.8-8.6Z"/><path class="d" d="M355.6,61.4a9.6,9.6,0,0,1-.8-2.9,34.4,34.4,0,0,1-.5-8.5c.1-1.6.3-3.3.5-5l.2-1.6c.1-.2-.1-.4-.3-.5h-.1a.4.4,0,0,0-.4.4.4.4,0,0,1-.1.3,27,27,0,0,1-.4,2.8c-.2,2.2-.3,4.3-.3,6.4h-.2a1.5,1.5,0,0,0-2,.4l-.8,1.2a13.2,13.2,0,0,0-.8,4.4c0,.5,0,.5-.6.6s-.5-.1-.5-.6.1,0,.1-.1l.3-1.7a2.4,2.4,0,0,0-.3-2L348,54a2.7,2.7,0,0,1-.5-1.9.5.5,0,0,0-.4-.5c-.2-.1-.4.1-.5.3a1.1,1.1,0,0,0,0,1.1c0,.2.1.4.1.6a26.9,26.9,0,0,1-1.4,6.1h-.2l-.3-.6a16.4,16.4,0,0,1-.2-2.2c.1-1.1.2-2.1.4-3.2s0-.4-.3-.5a.5.5,0,0,0-.5.3,1.4,1.4,0,0,0-.2.7h-.1a2.4,2.4,0,0,0-1.3.6,4.8,4.8,0,0,0-1.2,3.6c0,.2.2.5,0,.7h-.7c-.4,0-.5-.1-.4-.5a9.5,9.5,0,0,1,.4-2.1,2.5,2.5,0,0,0-.3-1.7,5.3,5.3,0,0,1-.6-1,3,3,0,0,1-.6-1.8v-.3a.6.6,0,0,0-.6-.3h-.2a1.5,1.5,0,0,0-.2.9,5,5,0,0,1,.2,1.2,27.3,27.3,0,0,1-1,4.8c0,.1,0,.2-.2.2h-.3a.4.4,0,0,0-.5-.2.1.1,0,0,1-.1.1c0,.1-.2,0-.2,0H334a14.1,14.1,0,0,0,1.6-2.7,4.1,4.1,0,0,0,.1-1.9.9.9,0,0,0-.6-1,1.1,1.1,0,0,0-1.2.3,4.4,4.4,0,0,0-.8,1.1,7.5,7.5,0,0,0-.4,4.2c0,.2-.2,0-.2,0h-1.2a6.5,6.5,0,0,0-.2-1.1,7.3,7.3,0,0,0-1.4-3.1.9.9,0,0,0-1-.4,3.1,3.1,0,0,0-1.3.6l-3.7,2.1a11.7,11.7,0,0,1-2.6,1,1.2,1.2,0,0,1-1.5-.8v-.2a4.5,4.5,0,0,1-.1-1.1,9.4,9.4,0,0,1,1.9-4.2,8.6,8.6,0,0,1,5.4-3.9,4.2,4.2,0,0,1,1.9-.3c.9.1,1,.4,1,.9s.1.1.1.1.2.4.4.4.4-.2.4-.5h0c-.2-1-.5-1.6-1.6-1.8h-.9a10.1,10.1,0,0,0-4,1.4,12.7,12.7,0,0,0-5.2,7.2,3.9,3.9,0,0,0-.1,2.4,1.9,1.9,0,0,0,1.8,1.4,2.8,2.8,0,0,0,1.3-.3,12.6,12.6,0,0,0,3.3-1.6c1.2-.6,2.3-1.3,3.5-1.8s.3-.1.4.1a4.7,4.7,0,0,1,.6.9,21.3,21.3,0,0,1,.8,2.7c0,.2,0,.3-.3.3a40.3,40.3,0,0,0-5,1.1,15.9,15.9,0,0,0-4.1,1.6,6.3,6.3,0,0,0-2.8,2.8,3.6,3.6,0,0,0-.2,1,4.9,4.9,0,0,0,2.1,3.8,8.8,8.8,0,0,0,5.3,1.4,5.1,5.1,0,0,0,4.7-2.8,11.4,11.4,0,0,0,1.3-4.7,17.1,17.1,0,0,0,0-3.2c-.1-.2.2-.2.2-.2h1s.4-.1.5.1a1.6,1.6,0,0,0,2.6.4l.6-.5c.2-.2.3-.1.5-.1s.1.2.1.3.1.4.3.4a.5.5,0,0,0,.5-.3,21.7,21.7,0,0,0,1.1-4.2l.3-1.3a2.7,2.7,0,0,1,.6,2.3,1.9,1.9,0,0,1-.2.7,7.8,7.8,0,0,0-.2,1.4,1,1,0,0,0,.6,1,5.4,5.4,0,0,0,1.8,0c.1,0,.2-.2.4-.2a1.1,1.1,0,0,0,1.2-.7l.5-.7v.4a5,5,0,0,0,.4,1.3,1.3,1.3,0,0,0,1.1.5.9.9,0,0,0,.7-.6l.9-3c.1-.8.3-1.6.4-2.5a2.5,2.5,0,0,1,.6,2.6,5.7,5.7,0,0,0-.3,1.8c0,.7.9,1.3.9,1.3h1.2s.2-.2.3-.1a1.5,1.5,0,0,0,2.3.1,5.9,5.9,0,0,0,1.3-1.8c0-.1.1-.3.2-.3a20.4,20.4,0,0,0,1.1,3.5c.1.3.3.4.5.3S355.7,61.6,355.6,61.4Zm-25.7,5.4a5.6,5.6,0,0,1-1.4,2,3.4,3.4,0,0,1-2.3,1,8.2,8.2,0,0,1-5.1-.8,5.5,5.5,0,0,1-1.8-1.9,2.6,2.6,0,0,1,.1-2.9,7,7,0,0,1,2.9-2.2,24.7,24.7,0,0,1,7.5-2.1h.6c.2-.1.3,0,.3.2s.1,1.3.1,2.2A11.8,11.8,0,0,1,329.9,66.8Zm3.6-8.8a6.8,6.8,0,0,1,.5-3.7l.4-.3a.3.3,0,0,1,.5.1,1.3,1.3,0,0,1,.1.6A7.7,7.7,0,0,1,333.5,58Zm.4,1.4h1.5a1,1,0,0,1-1.2.3Zm10-4a17,17,0,0,1-1,3.2l-.3.3c0,.1,0,.1-.2.1s-.1-.1-.1-.2-.1-.5-.1-.8a5.4,5.4,0,0,1,.5-2.2,1.4,1.4,0,0,1,.8-.7.3.3,0,0,1,.4,0Zm9.6,1.9-1.1,1.9a1.5,1.5,0,0,1-1.2.7c-.2,0-.3-.1-.3-.2a2.9,2.9,0,0,1-.5-2,9.5,9.5,0,0,1,1-3.5c.1-.2.1-.3.2-.4s.6-.6,1-.5a1.2,1.2,0,0,1,1,.8,11.1,11.1,0,0,1,.2,1.7A1.9,1.9,0,0,1,353.5,57.3Z"/><path class="d" d="M298.7,56.2a20.5,20.5,0,0,0-3.2-3.4,8,8,0,0,1-2-2.1,2.4,2.4,0,0,1,0-3,9.4,9.4,0,0,1,3-2.6,6.3,6.3,0,0,1,2.7-1c.3-.1.5-.3.4-.5a.5.5,0,0,0-.5-.4h-.2a7.7,7.7,0,0,0-2.8,1.2A13,13,0,0,0,293,47a3,3,0,0,0-.5,3.7,9.5,9.5,0,0,0,1.2,1.6,41.1,41.1,0,0,0,3.1,2.9,8.4,8.4,0,0,1,1.5,1.8H298a17,17,0,0,0-5.9,1,3.6,3.6,0,0,0-2.1,1.9,1.8,1.8,0,0,0,.2,2.1,3.7,3.7,0,0,0,3.7,1.4,7.1,7.1,0,0,0,5.2-3.5,2.8,2.8,0,0,0,.1-2.9Zm-.2,3.1a6.3,6.3,0,0,1-5,3.3,4,4,0,0,1-2.2-.6,1.5,1.5,0,0,1-.5-2,.2.2,0,0,1,.2-.2,2.8,2.8,0,0,1,1.3-1.1,15.2,15.2,0,0,1,5.1-.9h1.1a.2.2,0,0,1,.2.2A1.9,1.9,0,0,1,298.5,59.3Z"/><path class="d" d="M366.8,59.5a.4.4,0,0,0-.6-.2l-1.2.3c-.1,0-.1,0-.2-.2a19.9,19.9,0,0,1-.9-2.6,5.7,5.7,0,0,1-.1-2.9,4.9,4.9,0,0,0,.2-1.4c0-.4-.1-.4-.3-.4a.4.4,0,0,0-.5.2.8.8,0,0,0-.1.4,6.9,6.9,0,0,1-.3,1.6c-.6,1.7-.8,3.7-2.3,5.1a.5.5,0,0,1-.7,0,.5.5,0,0,1-.3-.5,13.4,13.4,0,0,1-.1-2,14.9,14.9,0,0,0,.2-2.1c.1-.7,0-.5-.3-.6a.5.5,0,0,0-.5.5l-.6,1.8a9.9,9.9,0,0,1-.9,2.4,1.3,1.3,0,0,1-.6.7c-.1.1-.2.1-.3-.1s-.1-.2-.1-.3V57.4l.2-2.8a.4.4,0,0,0-.2-.5h-.1c-.3-.1-.5.1-.5.4v.6a13,13,0,0,0-.2,3.4,2.6,2.6,0,0,0,.5,1.9.6.6,0,0,0,.7.2,3.1,3.1,0,0,0,1.1-.9,6.7,6.7,0,0,0,.6-1.2l.2-.3a2.9,2.9,0,0,0,.4,1.6,1.4,1.4,0,0,0,2,.3c.1,0,.1-.1.2-.2a11.7,11.7,0,0,0,1.7-3.1l.6,1.4.5,1.4c.2.5,0,.2-.2.3l-1.1.3a4.8,4.8,0,0,0-1.6,1.2.9.9,0,0,0-.1,1.2,2.3,2.3,0,0,0,2.3.8,2.4,2.4,0,0,0,1.8-2.7c0-.3.1-.3.3-.4l1.1-.2c.2-.1.4-.3.3-.5Zm-4.1,3.1a1.2,1.2,0,0,1-.8-.4c-.1-.1-.2-.2,0-.4a3.4,3.4,0,0,1,1.6-1h.2c.6-.1.6-.1.6.4S363.6,62.6,362.7,62.6Z"/><path class="d" d="M304.3,59.9l-.7.8-.8.5a1,1,0,0,1-1.4-.4h0a3,3,0,0,1-.4-1v.7s-.1.4-.4.4a.4.4,0,0,1-.4-.4h0l.6-6.2a.4.4,0,0,1,.4-.4h.1c.2,0,.1.4.1.4v1.4a13.9,13.9,0,0,0,.3,4.1v.5c.2.4.4.4.8.2l.9-.9c.1-.1.3-.3.5-.2s.1-.1.1-.1a40.1,40.1,0,0,1,0-4.9.6.6,0,0,1,.1-.4c.1-.1.3-.2.4-.1s.3.2.3.4v1.1a16.1,16.1,0,0,1,0,2.2.3.3,0,0,0,.1.2,14.2,14.2,0,0,1,.8-1.8l.4-.6a.7.7,0,0,1,.7-.4.8.8,0,0,1,.5.5,17.4,17.4,0,0,1,.5,2.2,3,3,0,0,0,.8,1.6.4.4,0,0,1,.1.5h-.1c-.1.2-.4.3-.5.2h-.1a2.4,2.4,0,0,1-.6-.8,10.3,10.3,0,0,1-.5-2.4,1.4,1.4,0,0,1-.2-.7l-.5.7a28.3,28.3,0,0,0-1.1,3.1V60c-.1.2-.1.4-.4.4s-.4-.1-.4-.3S304.3,60,304.3,59.9Z"/><path class="d" d="M310.2,54.4l1.7-.5h.2c.2,0,.4,0,.5.2s0,.4-.1.5h-.3a6,6,0,0,1-1.9.6c-.1,0-.2,0-.2.2a18.2,18.2,0,0,0-.1,3.3,5.9,5.9,0,0,0,.2,1.4.8.8,0,0,0,.8.5l.8-.4.8-.8c.2-.3.5-.3.6-.1s.2.5,0,.6h0l-1.9,1.3a1.2,1.2,0,0,1-1.6-.4l-.2-.3a7.5,7.5,0,0,1-.4-2.6c0-.8.1-1.6.1-2.5s0-.2-.2-.2a1.9,1.9,0,0,1-.9-.4.6.6,0,0,1-.1-.7h.1a.5.5,0,0,1,.7,0h.1l.3.2a.4.4,0,0,0,.1-.3c.2-1.6.3-3.3.6-4.9s.2-.5.5-.4.4.2.3.4h0a39.1,39.1,0,0,0-.5,4.8C310.1,54.2,310.2,54.3,310.2,54.4Z"/><path class="d" d="M317.1,54.9c.4,0,.6.2.6.4a.4.4,0,0,1-.4.4l-3.5.5a.5.5,0,0,1-.5-.4.7.7,0,0,1,.4-.5Z"/><path class="d" d="M301,52.5c-.3,0-.4-.1-.4-.4a.4.4,0,0,1,.4-.4c.3,0,.6.2.6.4s-.3.5-.6.4Z"/></svg>
