<svg xmlns="http://www.w3.org/2000/svg" viewBox="0 0 1063 1273"><defs><style>.a{fill:none;}.b{fill:#e6e6e6;}</style></defs><title>SingerFiguurtjes-grey-6</title><path class="a" d="M527.2,942.8a32,32,0,1,0,43.4-47,33.9,33.9,0,0,0-22.1-9.5H548a27.8,27.8,0,0,0-20.8,9.4,35.8,35.8,0,0,0-9.4,23.9C517.7,928.9,521,937.1,527.2,942.8Z"/><polygon class="a" points="196.1 737.4 220.1 772.7 233.4 790 131.6 826.6 143.3 846.4 276.5 796.1 368.2 691.8 354 674.5 285.6 753.1 248.3 701.2 351.7 670.8 345.7 645.4 235.3 679.1 235.9 680 233.6 679.6 231.9 680.8 231.9 680.8 181.1 716.7 181.6 717.5 180.2 717.6 111.8 809.1 130.5 822.4 196.1 737.4"/><polygon class="a" points="285.7 749.8 353 672.5 251.6 702.4 285.7 749.8"/><polygon class="a" points="642.4 1148.3 642.4 1148.3 624.2 1141.7 619.3 1155 618.3 1157.9 656.8 1247.3 662.8 1263.6 683.8 1255.9 646.6 1155.4 644.2 1148.9 642.4 1148.3"/><polygon class="a" points="218.5 773.9 196 740.8 131.4 824.6 230.1 789.1 218.5 773.9"/><polygon class="a" points="490.3 954.2 484 946.8 441.6 896.5 520.3 866.9 514.3 850 429.1 878.7 428.7 879.9 428.1 879.2 381.2 916.8 381.2 917 380.9 919.2 380.3 918.4 334 992 350.6 1001.9 395.4 934.5 443.9 991.9 397.4 1059.1 413.1 1069.3 474.9 984.4 476.6 981 477.2 981 581.3 988 579.8 965.9 490.3 954.2"/><polygon class="a" points="154.9 863.8 61.6 872.5 149.5 883.7 157.2 883 154.9 863.8"/><polygon class="a" points="537.7 1238.3 526.7 1258.1 526.5 1258 524.7 1273 542.6 1273 549.2 1217.7 537.7 1238.3"/><polygon class="a" points="555.1 521 553.7 520.8 553.7 520.8 553.7 520.8 538.7 518.7 537.3 528.9 537 532 581.5 594.5 586.6 600.6 601.1 591.3 585.4 568.3 585.3 568.5 555.1 521"/><path class="a" d="M714.8,748.3a32.2,32.2,0,0,0-18.4-5.9,35.1,35.1,0,0,0-5.5.5,32,32,0,1,0,23.9,5.4Z"/><polygon class="a" points="809.1 350.5 807 328.3 708 337.8 801 351.3 809.1 350.5"/><polygon class="a" points="378.3 26.6 400.1 26.3 399.8 0 378 0 378.3 26.6"/><polygon class="a" points="708.1 823.7 707.6 824.4 707.6 824.4 703.6 830.4 771.1 925 794.7 909.5 733.2 830.9 734.8 829.7 797.2 909.4 796.6 910 796.9 910.4 790.2 914.8 849.6 981.9 873.3 948.9 931.6 992.5 948.3 972.4 890.8 924.6 911.7 895.6 976.4 933 988.6 910.4 929.1 871.3 952.6 838.7 770.1 778.1 770.5 777.1 812.8 678.3 788.8 669 745.8 770.4 745.7 770.5 720 806.7 711.2 819.2 708.1 823.7"/><polygon class="a" points="685.6 1164 685.4 1163.9 646.6 1149.8 668.7 1209.4 676.5 1187.9 713.3 1273 721.9 1273 735.1 1267.3 685.6 1164"/><polygon class="a" points="824.8 1253.5 838.1 1273 872.5 1273 846.3 1238.7 824.8 1253.5"/><polygon class="a" points="622.6 595 636.5 585 590.9 527.3 590.9 527.3 589.8 525.9 589.6 525.7 557.7 521.3 564.4 531.9 584.1 562.8 586.6 544.9 622.6 595"/><polygon class="a" points="920.2 1273 923.2 1273 922.3 1271.3 920.2 1273"/><polygon class="a" points="923.5 574.1 920.6 574.1 979.1 499.2 956.1 481.3 890.4 565.3 915.9 469.2 889.5 462.2 860.2 572.9 858.5 572.8 855.8 711.7 922.1 643.9 923.5 574.1"/><polygon class="a" points="617.3 1160.6 576.5 1273 645.6 1273 654.8 1247.7 617.3 1160.6"/><polygon class="a" points="517.6 1123.9 499.8 1123.5 481.2 1230.5 525.9 1255.4 600.8 1121.1 643.5 1005.6 625.3 1001.6 582 1110.1 575 1106.2 578.4 1106.3 573.6 999.2 550.2 998.8 557 1095.5 509.9 1180.1 509 1179.6 508 1179.4 517.6 1123.9"/><path class="a" d="M887.6,805.5a32,32,0,0,0,.6-64h-.7a32,32,0,0,0-.6,63.9Z"/><polygon class="a" points="874.8 732.2 874.8 732.2 874.8 732.2 876.6 732.2 889.5 717.7 952 646.7 935.3 631.9 923.8 645 855.8 714.5 855.6 717.6 855.4 731.8 874.8 732.2"/><polygon class="a" points="669.8 1212.3 686.3 1257.1 661.7 1266.2 655.9 1250.6 647.8 1273 672 1273 680.2 1266.5 685.1 1273 711.1 1273 676.7 1193.3 669.8 1212.3"/><polygon class="a" points="675.2 1273 682.6 1273 679.8 1269.3 675.2 1273"/><polygon class="a" points="89.5 582.6 51.3 691.9 71.8 699.1 108.7 593.6 154.9 549.2 153.6 546.7 259.9 511 252.7 489.3 143.2 526.2 56.3 355.2 27.5 383.2 0 352.5 0 396.4 6.1 404.1 0 410 0 523.7 89.8 581.8 89.5 582.6"/><path class="a" d="M3.7,923A32.1,32.1,0,0,0,34,889.4,32,32,0,0,0,2.1,859H0V923C1.2,923,2.5,923.1,3.7,923Z"/><polygon class="a" points="230.2 87.7 230.5 87.5 254.8 129.7 248 2 225.8 3.2 230.2 87.7"/><polygon class="a" points="0 1273 40.7 1273 0 1257.7 0 1273"/><polygon class="a" points="1063 0 1036.8 0 1063 10.3 1063 0"/><path class="a" d="M376.3,28.6,376,0H311.2a34.1,34.1,0,0,1-5.5,1.4,35.5,35.5,0,0,1-4.6.3,30.4,30.4,0,0,1-10-1.7H249.9L257,133.6l53.4,93,80.9,72.7-20.9,23.3-86.6-77.8-1.4.8,13.4,116.9-32.9,3.7-12-104.7-47-81.9,6.4,56.8-26.1,3L170.7,121.1l1.6-.2,56-32.1L223.6,1.3,247.5,0H214l.9,1.5L187.3,17.6l-.6-.8L176.1,0H126a34.8,34.8,0,0,1-6.3,12.6A33.9,33.9,0,0,1,96.9,25.2l-3.9.2A33.5,33.5,0,0,1,71.9,18,36.8,36.8,0,0,1,59.4,0h-14L95.6,39.9h.7v.6l.7.6-.3.4,64.7,98.9-25.6,14.5h.1l-15,21.9-.7-.3L0,120.1V262.2L32.2,246l33.3-27.1-.2-.2,13.2-10.4,4.6-3.7h0l7.2-5.6.6.4L192,262l-10.6,18.6,73.1,56.5-31.7,26.2,47.3,55.2-21.8,20.6-51.6-54.3L172,405.2l41.7,62.4-25,15.7-42.8-56.5-31.4,25.9L41.6,274.1,0,295.3v54.2l27.6,30.8,29.2-28.5,87.4,171.9,109.7-36.9,8.6,25.4-1,.3-105,35.4.9,1.8-46.9,45.1L73.1,701.7l-24.4-8.6L87.4,582.7,0,526.1v142L30,556.9l29.9,11.5L26.4,699.3l5.9,115.8,63-64.6L115,768.3,34.2,852.5v.8h-.9l-.4.4-.5-.4H30.5L0,855.1v2H.4A34,34,0,0,1,36,889.3,34.1,34.1,0,0,1,3.8,925H0v59.2a34.1,34.1,0,0,1,30.1,9.7,34.1,34.1,0,0,1,9.7,24.2A33.9,33.9,0,0,1,29.6,1042a33.6,33.6,0,0,1-23.8,9.7H5.4a32.9,32.9,0,0,1-5.4-.5v38.5l.3,9.8H0v55.4a33.4,33.4,0,0,1,13.7,26.2A33.7,33.7,0,0,1,0,1209.4v46.2l43.4,16.3.3-.3,1.7,1.4H59.3a26.2,26.2,0,0,1-.9-3.8,29.9,29.9,0,0,1,6.3-24.1c12.1-15.2,35.2-18.7,49.4-7.4a34,34,0,0,1,11.7,35.3H176l-60-94.5-.2.2-80.7-82.5,16.2,69.9-23.8,4.2-.2-1L7.2,1067.7l-.5-.5.3-.3v-.3h.4L54,1020.9v-.7h.7l.6-.6.6.6,116.6-2.3-.2,26.6L82.1,1047l81.1,82.9,118.9,64-11.7,29.8-128.2-67L213.9,1273h30.9l5-.3v.3h41.6a30.3,30.3,0,0,1-20.2-24,30.2,30.2,0,0,1,25.2-34.4,30.2,30.2,0,0,1,14.2,58.4h65.3l-.9-88.6L188.7,1141l18-37-66-30.4,11.2-27.9,69.5,27.9,14-28.9-63.9-39.2,16.2-24.8,62.5,33.6L268,977.6l1,1,139.5,131.1,90.7-72,16.7,21-87.6,69.6,1.4,1.3-28.8,58.3.8,85.1h34.5a34,34,0,0,1,67.7,0h18.8l1.9-16-44.2-24.7h-1.5l.2-1.1,19-109.7,21.9.4-9,52.1,44-79-7-98.3,27.5.6,5,109.7.5.3,43-108,22.2,4.8L602.6,1122l-50.8,91.1-7.2,59.9h29.7l43.2-118.7,5.2-15.6,20.6,7.8,4.9,1.2-.7.3,36.9,13.4h0l.9.3,1.7.4v.3l.7.3-.2.7.2.5,50,104.4-10.9,4.7H835.7L822,1253l24.7-17,28.3,37h41.9l6.2-4.9,2.3,4.9h45.1l17.6-18.8,1.2,1.7,8.6-25,65.1,24.4v-45.8a33.5,33.5,0,0,1-18.9,6.4H1043a34,34,0,0,1-24.7-57.3,34.2,34.2,0,0,1,44.7-4.2v-55.1l-48,1.4-11.9,51.5,1.9,63.1.7,1.4-.6.2v.2h-.4l-106.8,50-11.1-23.8,51.7-24.2-94.4,2.8-95.5,44.7-14-30,106.5-49.9v-1.6l-111.6-33,8.9-30,104.3,30.8,134.3-4,11.7-50.5,8.6-22.1h.7l64.9-1.9.2,5.8v-29.2a33.9,33.9,0,0,1-17.7-57.7,33.2,33.2,0,0,1,17.7-9.1V924.7a33.8,33.8,0,0,1-20.4-8.6,34,34,0,0,1-2.4-48.1,33.8,33.8,0,0,1,22.8-11.1v-2l-32.4,1.7-.3.2-.2-.2h-.5v-.7l-61.7-84.5,19.3-14.7,40.3,59.4-5.8-115.3h.2L987.8,572.6l30.6-9.4.3,1,37,132.1,7.3-27.2V525.7l-72.9-47.3,29.4-28.7-51.7-51,20-22.4,56,49.8,19.2-18.8v-8.2l-43.1-54,23.7-17.8L1063,349V295.3l-54.8,27.9-12.5-27,67.3-34V119.8l-6.5-3.1-.2-.2L969.7,1.2,970.8,0H925.5l37.8,78.6,20-6.4,40.2,112.6-6.5,5.5v.3l-8.9,7.2-8.6,7.3v-.3l-34.7,28,22.8,87.9-25.7,7.4-.2-1L932.2,211,781,108.2l31.9-25.3L766.5,29.2,787.2,8.1l52.2,53.8,25.1-20L835.8,0H727.4L713.8,5.9,711.3,0H685.2l84.4,111.8L817.9,152l112.9,74.5-17.5,28.2L799.1,176.2,739.4,248l138.7.4v26.2l-163.4,2.9-.4.5-.4-.4h-1.8l.7-.9L671.2,242l-.2.3-19.5-16.2,76.1-91.5,9.6,8,9.2-10.9L655.9,13.2,672.4,0H648L632.4,43l-.9-.3,27.1,89-31.7,9.6L598.1,46.7l-10,91.2L557,134.5,569.5,20.2l-2-.7.3-1L574.6,0H544.8l-7.7,64.6L515,65.7,522.8,0H504.1c.1,1.1.1,2.1.1,3.2a34,34,0,0,1-34,34,34,34,0,0,1-34-34c0-1.1.1-2.1.2-3.2H401.8l.3,28.3ZM55.6,224.4A33.5,33.5,0,0,1,34.2,232a21.7,21.7,0,0,1-3.6-.2,33.9,33.9,0,1,1,25-7.4ZM151.3,88a33.3,33.3,0,0,1-3.4-25.8,34,34,0,1,1,49.8,38.4,34.8,34.8,0,0,1-16.9,4.5A33.7,33.7,0,0,1,151.3,88ZM477.5,1190.9a34,34,0,1,1-15.4-45.6A33.9,33.9,0,0,1,477.5,1190.9ZM986.9,261.2a34,34,0,1,1,53-42.7,34,34,0,0,1-26.4,55.3,22.3,22.3,0,0,1-3.7-.2A33.7,33.7,0,0,1,986.9,261.2ZM223.8,639l64.3-132.2L302,445.5,317.2,311l33.1,2.8-.2,1.1-18,136.3,91.1,20.7L360.6,348.1l23.4-12,.4.8,76.3,143.5h.5v.6l.8,1.6-1.1-.3-12,52.9-1.9-.4L458.8,482l-34.4-7.8h0l-94.5-21.4L348,315.6l-29-2.4L304,445.9l-14,61.5h0L226,638.9l24.9,11.3,64.4-134.1,15.4,3.5,2.4-10.5h.6l.3-1.2,84.8,19.3-.4,1.9-83.5-18.9-5,22,112.2,25.4,5.1-22.7,2,.4-5.6,24.7L327.5,533.8l2.8-12.2-13.9-3.2L251.9,652.8l-28.6-12.9ZM535.4,528.4l1.3-12.2,17.5,2.6h4.5l-.6.5,29.8,4h0l1.2.2h1.5v.2h.8l-.2.7,48.1,60.8-17.3,12.4-34.2-47.7-2.1,15.3,18.1,26.5-17.8,11.3-4.7-5.7-7.3,53.6-1.8,2.8-5.8,63.4-27.7-1.8,2.7-60.8-82.4-15.4,5.4-27,57.9,13,.9-9.9Zm-7.6-47.1a33.8,33.8,0,0,1,37.4-30.2A33.3,33.3,0,0,1,588,463.5a34.1,34.1,0,0,1-26.4,55.4l-3.6-.2a34,34,0,0,1-22.9-12.5A33.4,33.4,0,0,1,527.8,481.3Zm129.4,28.5,5.7-27.2,1,.2,112.9,23.8,1.5-.9,50.2,45.1-.4.8,23.1,114.6-27.4,5.6-16.6-82.1L724.4,740.9l-30.8-27.3-47.1,55.3-23.8-18.3,45.5-59.4-24-21.3-55,51-19.5-22.3,49.2-51.1-30.5-27L742,527.7ZM647,397.2a40.7,40.7,0,0,1-5-.3,35,35,0,1,1,5,.3Zm155.2,81.6a33.9,33.9,0,0,1,59.2,20.9,33.8,33.8,0,0,1-32.1,35.7h-1.9a33.9,33.9,0,0,1-25.2-56.7ZM724.1,794.1a34.3,34.3,0,0,1-27.8,14.3,34,34,0,1,1,27.8-14.3ZM508.9,691.3a34,34,0,0,1-11.5,23.3A34.3,34.3,0,0,1,475,723a33.8,33.8,0,0,1-25.6-11.6,33.4,33.4,0,0,1-8.3-24.7,34,34,0,0,1,11.5-23.3,33.6,33.6,0,0,1,24.6-8.3,33.9,33.9,0,0,1,31.7,36.2Zm16-161.5a34,34,0,1,1-51.3-36.3,34.1,34.1,0,0,1,25.7-4.4,34,34,0,0,1,25.6,40.7ZM212.8,647.2a33.7,33.7,0,0,1,5.7,25.4,33.4,33.4,0,0,1-13.8,22,36.8,36.8,0,0,1-21.1,7,20.6,20.6,0,0,1-3.5-.2,29.6,29.6,0,0,1-21.3-12.8,38.1,38.1,0,0,1-6.6-26.4c1.2-9.7,5.9-17.9,13.2-23.1A34.1,34.1,0,0,1,212.8,647.2Zm-78.4-72.7a33.7,33.7,0,0,1,24.2-9.5A34,34,0,0,1,192,599.7a34,34,0,1,1-57.6-25.2Zm44.1,142-.2-.3,54-38.2v-.7h.7l.7-.5.3.5,113-34.5,6.8,28.6h.1l16.9,20.5-.6.6L277.7,797.8h-.3l-134.9,51-13.9-23.3,1.9-.7-21.6-15.3Zm110,261.2L178.8,949.1l.2-.6-47.2-6-94.7,2V930.4h-.3l.2-7h0v-.8h0l6.6-52.2h1l8,1,104.2-9.7,2.7,23.2h-.8l39.5,5.1v.7l77.4-39.3,15.7,25.5-95,48.2,100.5,26.1Zm-17-50.5L322.1,821l-1.1-1.2L213.9,865.3l-12.2-28.8L301.8,794l101.1-88.5-23-46.4-7.5-22.6,49.5-43.2,16.4,18.8-36.6,32,23.5,47.3,41.6,47.5,1.4.7-.3.6h.1l-.2.2L417,847l-23.7-11.3,24.6-51.6-71.1,62.2-45.3,95.1Zm130.8-32.3a31.9,31.9,0,1,1,4.9-44.9A31.8,31.8,0,0,1,402.3,894.9ZM477.8,983l-1.3,2.5L413.7,1072l-19.1-12.3L441.4,992l-45.8-54.1-44.4,66.6-20-11.8L379,916.8l-.3-.5.6-.5v-.6h.6l48.4-38.8.2.3,87-29.2,7.2,20.6-77.9,29.3,40.6,48.1,5.8,6.9,90.4,11.7,1.8,26.1Zm47.9-88.7a30.1,30.1,0,0,1,22.8-10,36,36,0,0,1,23.5,10,34,34,0,0,1-23.1,59,33.8,33.8,0,0,1-23.1-9.1c-6.5-6-10.1-14.8-10-24.6A38.2,38.2,0,0,1,525.7,894.3Zm72.9,21.3-.7-.6h-.5v-.6l-1.4-1.3h0l-47.3-43.6.3-.3L492,767.9l23.4-12.4-1.8-.9,16.7-21.3,127.5,68.1v.2l78.5,117L717,936.8v-.2l-10.5,27.5L599,915.2ZM701.1,1126a34.1,34.1,0,0,1-32,22.4,35.7,35.7,0,0,1-11.5-2,34,34,0,0,1-20.4-43.6h0a33.9,33.9,0,0,1,17.6-19.2,33.5,33.5,0,0,1,26-1.2A34.1,34.1,0,0,1,701.1,1126Zm294.2-58.3a34.1,34.1,0,0,1-33.8,30l-4-.2a34,34,0,1,1,37.8-29.8Zm20.9-68.9-86.6,27.5-5.2,44.3h.3l-1.6,11.2-1.3,11.4h-.3l-1.2,8.4-116.7,26-5.3-20.4-91.8,10.5,4.5-40.9-72.4-6.6,1.3-30,74.8,2.9,3.5-31.8-73.3-15.6,6.9-28.7,70.1,10.6,4.5-40.5,167.4,73.3,115-37.2Zm-25-89-14,26-65-37.5-18.7,26,57.6,47.9-19.2,23.1-58.1-43.5-24.1,33.3-61.2-69.2-17.9,11.9-.6-.8-68.9-96.6,5.1-7.5h0l.4-.7,3-4.2h0l9.4-13.8.2.2,24.8-35,43.7-103,27.8,10.7-42.8,99.8,183.1,60.8L932,870.8Zm-137.7-137A33.8,33.8,0,0,1,864,748.9a33.4,33.4,0,0,1,24.2-9.4,33.9,33.9,0,0,1,33.3,34.6A33.3,33.3,0,0,1,911.1,798a33.9,33.9,0,0,1-23.5,9.5h-.7A33.3,33.3,0,0,1,863,797,33.9,33.9,0,0,1,853.5,772.8ZM981.9,498.9l-57.3,73.2h.9l-1.4,69.4,11-12.5,19.8,17.4-31.6,35.8-.4,20.3,65.2-66.5,18.8,18.4-.7.8-83.9,79.1v.7h-.8l-.2.2-1.7-.2h-.9l-39.3-.8.5.6-5.2-.7H852.9l.7-16.6,2.9-146.7h2.2l29.4-111.1,30.3,8-23.5,88.7,60.9-77.9ZM808.8,326.2l2.5,26.1-1.9.2,42.3,6.2-.2.8L933.2,315l15.9,29.1L848.8,398.7l105,30.7L945,459.5,830.8,426.1l.2-.7-49.4-7.2-99,1.6V403.9h-.3l.3-8.2h-.1l.2-1.3,7.6-59.2,9.3,1.3ZM685.1,260.1a33.9,33.9,0,0,1,4.4,47.8,34.1,34.1,0,0,1-23,12.2h-3.2a34,34,0,0,1-26.1-55.7A34.1,34.1,0,0,1,685.1,260.1ZM549.3,171.9l.3.9,34.6,111.3,1.6.2,47.8-106.1L662.2,191l-.4,1-44.3,98.2L606.1,397l47.5,125.1L629,531.5l-31-82-64.3-6.8-1.5.4L496.9,329.5l25.1-7.8,17,54.5,9.9-93.9L517.6,181.7Zm-79-129.7h34.9V56.1l14.7,104.3-14.7,2.1v40.2l34,103.3-29.8,9.8L473.1,205.2h-1.6l-46.6,108L394.5,300l41.7-96.7V162.5l-.4,1.9-25.6-6.3,26-106.5V42.2ZM405.4,80.1,340.6,29.7l2.7,17.4,31.8,27.6L359.8,92.5l-11-9.5,9.4,60.4h-.7l58.7,57.3-20.6,21.1-62.2-60.8,30.9,74.5-25.8,10.7-38.9-93.9-1.9.3L277.9,24.5,275.3,10l19.4-2.7,4.5-1.2-.4.6,33.8-5.3h1l1.6-.5.2.2h.8v.7l1.4,1.1h0l82.1,58.9Z"/><polygon class="a" points="34 849.7 34 849.8 112.1 768.4 95.4 753.3 30.5 819.8 24.3 699.1 24.4 698.9 57.5 569.7 31.4 559.5 0 675.8 0 853.1 32.4 851.4 34 849.7"/><polygon class="a" points="172.9 122.5 186 237.1 208.1 234.6 201.3 175.1 202.3 174.9 203.2 174.4 252.8 260.9 264.6 364 293.6 360.7 280.5 246.4 276.1 247 284.1 242.4 284.6 242.9 370.3 319.8 388.5 299.5 308.9 227.9 308.8 227.8 229.8 90.2 228.4 91 228.4 91 173.1 122.8 172.9 122.5"/><path class="a" d="M73.2,16.5a31.5,31.5,0,0,0,23.5,6.7,31.8,31.8,0,0,0,21.4-11.9A30.4,30.4,0,0,0,123.9,0H61.5A34.8,34.8,0,0,0,73.2,16.5Z"/><polygon class="a" points="0 12.8 0 53.1 25.1 22.7 0 12.8"/><polygon class="a" points="133 155.8 38.4 112 77.7 61.8 78.5 63 135.8 152.6 158.5 139.7 95.4 43.2 94.7 44 94.5 41.8 94.5 41.8 94.5 41.7 94.5 41.6 44.1 1.5 43.5 2.3 43 1 40.5 0 0 0 0 10.6 28.4 21.8 1.2 54.7 0 56.4 0 117.9 120.2 174.3 133 155.8"/><polygon class="a" points="212.1 0.8 211.6 0 178.5 0 187.9 14.9 212.1 0.8"/><polygon class="a" points="0 399.6 0 407.3 3.4 403.9 0 399.6"/><polygon class="a" points="43.1 272.4 115.3 449.4 146.2 423.9 189.2 480.6 210.9 467 169.3 404.9 196.9 382.1 248.4 436.3 267.4 418.3 220 363.1 251.3 337.2 180.4 282.4 176.5 289.3 176 289 175.5 289.8 100.5 242.8 101.5 241.2 175.3 287.4 189.3 262.6 90.4 201.5 83.8 206.8 83.8 206.8 79.7 209.9 71.1 217 67.9 219.5 67.9 219.5 33.2 247.7 0 264.5 0 293.1 42.6 271.4 43.1 272.4"/><path class="a" d="M5.8,1049.7a31.8,31.8,0,0,0,22.4-9.1,32,32,0,0,0,9.6-22.6,32.1,32.1,0,0,0-9.1-22.7,32,32,0,0,0-22.9-9.6,37.9,37.9,0,0,0-5.8.5v63a33.1,33.1,0,0,0,5.5.5Z"/><path class="a" d="M806.1,525.3a32.2,32.2,0,0,0,45.2-2.4,32,32,0,1,0-45.2,2.4Z"/><path class="a" d="M328.8,1240.1a28.2,28.2,0,0,0-27.8-23.8,31.1,31.1,0,0,0-4.3.3,28.2,28.2,0,1,0,32.1,23.5Z"/><polygon class="a" points="269.3 1220.9 279.6 1194.8 162 1131.5 161.9 1131.4 77.4 1045.1 170.3 1042.5 170.5 1020 57.8 1022.2 57.9 1022.3 55.5 1022.2 9.5 1067.2 10.2 1067.9 9.3 1068.1 29 1168 48.9 1164.5 31.5 1089.7 115.9 1175.8 116.3 1175.4 117 1176.4 178.4 1273 211.6 1273 136.7 1151.6 269.3 1220.9"/><polygon class="a" points="131.8 940.5 131.8 940.5 148.9 940.2 148.2 921 64.9 924.3 64.8 922.3 149.2 918.9 149.3 919.9 150.2 919.9 150.9 942.1 145.4 942.2 181.6 946.8 181.3 947.7 287.2 975.3 294.1 952.6 193.4 926.3 192.7 926.7 192.5 928.4 189.3 923.2 193.1 924.2 193.1 924.2 193.2 924.2 288.2 876 274.7 853.9 195.5 894.1 195.8 891.6 149.5 885.7 149.5 885.7 149.4 885.7 58.7 874.1 45.3 872.4 38.9 922.6 39.1 942.4 131.8 940.5"/><path class="a" d="M382.3,840.1a29.9,29.9,0,1,0,23.3,11.2A29.4,29.4,0,0,0,382.3,840.1Z"/><polygon class="a" points="399 1187.3 427.2 1130.1 425.2 1128.1 426.1 1127.4 513.1 1058.4 498.9 1040.5 408.4 1112.3 407.7 1111.7 268.6 981 251.1 1017.1 188.4 983.4 174.3 1004.8 238 1044 222.4 1076.1 221.6 1075.8 153 1048.3 143.3 1072.5 209.3 1103.1 191.6 1139.7 377 1182.8 377.9 1273 399.7 1273 398.9 1187.5 399 1187.3"/><path class="a" d="M11.7,1181.2A31.8,31.8,0,0,0,0,1157.4v49.5A31.7,31.7,0,0,0,11.7,1181.2Z"/><path class="a" d="M558.2,516.7A32,32,0,0,0,565,453h-3.5a32,32,0,0,0-31.7,28.6,31.9,31.9,0,0,0,28.4,35.2Z"/><path class="a" d="M470.1,1244.1a32.1,32.1,0,0,0-31.9,28.9h63.7A31.9,31.9,0,0,0,470.1,1244.1Z"/><polygon class="a" points="423.5 692.4 399.2 643.6 435.5 611.9 421.7 596.1 374.7 637.2 381.7 658.4 405.4 706 302.7 795.8 204.3 837.5 215 862.7 321.6 817.4 327.6 824.3 323.7 822.4 274.2 926.2 300.5 938.8 345.1 845.1 465.2 740.1 423.6 692.5 423.5 692.4"/><polygon class="a" points="396 834.7 416.1 844.3 464 743.8 454.1 752.4 421.6 780.8 396 834.7"/><path class="a" d="M124.7,1260.7a32.1,32.1,0,0,0-11.8-21.5,29.9,29.9,0,0,0-18.7-6.2,36,36,0,0,0-27.9,13.4,28.4,28.4,0,0,0-6,22.5,31.1,31.1,0,0,0,1.1,4.1h62.3A30,30,0,0,0,124.7,1260.7Z"/><path class="a" d="M678.5,367.8a32,32,0,0,0-27-36.3l-4.6-.3a32,32,0,0,0-25.7,51.1,31.9,31.9,0,0,0,57.3-14.5Z"/><path class="a" d="M965.2,1031.9l-3.8-.2a32.1,32.1,0,0,0-31.7,28.3,32.1,32.1,0,0,0,28.1,35.5,32.1,32.1,0,0,0,35.5-28.1A32.1,32.1,0,0,0,965.2,1031.9Z"/><polygon class="a" points="839.2 64.6 787.2 10.9 769.3 29.3 815.8 83.2 784.4 108.1 933.9 209.7 934 210.1 963.3 325.6 985.2 319.3 961.6 228.6 964.4 230.5 998.9 202.7 1006.9 196.2 1016.1 188.5 1016.1 188.5 1021.2 184.2 982.1 74.7 955.1 83.2 990.9 179.7 989.1 180.3 953.1 83.3 954.2 82.9 953.7 81.6 961.3 79.2 923.3 0 920.5 0 890.7 23.7 872.6 0 838.2 0 867.2 42.3 839.2 64.6"/><polygon class="a" points="917.3 0 875.1 0 891 20.9 917.3 0"/><polygon class="a" points="300.9 150.2 339.6 243.6 361.6 234.5 327.8 152.9 395.5 219.1 413.4 200.8 353.3 142.1 355.9 141.7 346.5 81 280.7 29.6 299.4 150.4 300.9 150.2"/><path class="a" d="M154.2,662.5a36.6,36.6,0,0,0,6.2,25,28.1,28.1,0,0,0,19.9,12,34.6,34.6,0,0,0,23.2-6.5,32.1,32.1,0,0,0,13.1-20.7A32.1,32.1,0,0,0,185,634.9a32.4,32.4,0,0,0-18.5,5.8C159.7,645.6,155.3,653.3,154.2,662.5Z"/><polygon class="a" points="722.3 0 713.4 0 714.8 3.2 722.3 0"/><path class="a" d="M1010,271.6a31.3,31.3,0,0,0,23.5-6.9,32,32,0,1,0-45-4.8A31.6,31.6,0,0,0,1010,271.6Z"/><polygon class="a" points="278 11.9 279.9 24.2 280.4 26.8 348 79.6 359.6 89.6 372.3 74.9 343.8 50.2 343.8 50.2 296.4 9.1 294.8 9.3 294.8 9.3 278 11.9"/><polygon class="a" points="494.7 163.1 493.2 163.4 479.2 76.4 481.2 76.1 495 161.9 505.2 160.5 505.2 160.5 517.6 158.7 502.7 52.3 501.6 44.7 470.2 44.2 438.2 44.2 438.2 203.7 438.2 203.9 397.1 299 423.8 310.5 469.4 205 465.4 203.2 474.6 203.2 474.8 203.9 510.7 313.3 536.6 304.8 503.2 203 503.2 162.8 494.8 163.9 494.7 163.1"/><polygon class="a" points="434.3 161.9 436.2 154 436.2 60.1 412.6 156.7 434.3 161.9"/><path class="a" d="M196.7,98.9a32,32,0,1,0-46.9-36.1A31.6,31.6,0,0,0,153,87,32.2,32.2,0,0,0,196.7,98.9Z"/><path class="a" d="M498.8,491a33.5,33.5,0,0,0-7.1-.7,31.9,31.9,0,0,0-27,49,31.4,31.4,0,0,0,20,14.2A32.1,32.1,0,0,0,523,529.3,32.2,32.2,0,0,0,498.8,491Z"/><polygon class="a" points="335.7 3.7 334.9 3.1 333.9 3.3 299 8.7 341 45.1 337.9 25.1 405 77.3 416.9 62 336.6 4.3 336.6 4.3 335.7 3.7"/><path class="a" d="M180.2,622.1a32.3,32.3,0,0,0,9.8-22.5A32.1,32.1,0,0,0,158.6,567H158a32,32,0,1,0,22.2,55.1Z"/><polygon class="a" points="535.3 62.7 542.8 0 524.8 0 517.2 63.6 535.3 62.7"/><polygon class="a" points="619.5 892.7 716.2 935.5 659.5 850.1 619.5 892.7"/><path class="a" d="M470.2,35.2a32,32,0,0,0,32-32c0-1.1,0-2.1-.1-3.2H438.4c-.1,1.1-.2,2.1-.2,3.2A32,32,0,0,0,470.2,35.2Z"/><polygon class="a" points="1057.8 115.1 1063 117.6 1063 56.6 1051.6 72.1 999.3 0 973.5 0 972.3 1.3 1057.8 115.1"/><path class="a" d="M680.1,1084.3a32.1,32.1,0,0,0-24.5,1.1,31.6,31.6,0,0,0-16.5,18.1h0a32,32,0,1,0,41-19.2Z"/><path class="a" d="M34.1,166a32.1,32.1,0,1,0,24.8,11.8A32.2,32.2,0,0,0,34.1,166Z"/><polygon class="a" points="596 817.5 609.5 803.9 516.2 756 516.3 756.1 569.4 847.4 596 817.5"/><path class="a" d="M477.1,657.1h-2.2a32,32,0,0,0-21,7.9,31.5,31.5,0,0,0-10.8,22,32,32,0,1,0,34-29.8Z"/><polygon class="a" points="876.1 250.4 737.7 250 716.5 275.5 876.2 272.7 876.1 250.4"/><path class="a" d="M461.2,1147.1a32.7,32.7,0,0,0-14.1-3.3,32,32,0,1,0,28.6,46.2,31.4,31.4,0,0,0,1.6-24.4A32,32,0,0,0,461.2,1147.1Z"/><polygon class="a" points="748.9 131.7 738.8 143.9 747.1 150.8 746.7 151.3 747.6 152.1 692 219 690.4 217.7 745.2 151.8 736 144.2 736 144.2 727.9 137.5 654.4 225.9 672.3 240.8 672.5 240.5 714.2 275.1 798.7 173.5 912.7 251.9 928 227.1 816.6 153.5 768.1 113.2 768 113.1 682.6 0 675.6 0 658.7 13.5 748.9 131.7"/><polygon class="a" points="616.1 893.4 659.8 846.9 717.4 933.7 733.8 918.3 656.4 803 530.9 735.8 516.6 753.9 612.9 803.4 597.5 818.9 569.1 850.7 515.1 757.9 494.7 768.7 550.7 868.4 552 868.6 551.4 869.3 598.7 913 598.8 913 598.9 913 598.9 913 601.1 912.9 600.4 913.7 705.4 961.4 714.7 937 616.1 893.4"/><polygon class="a" points="571.7 18.8 559.2 132.7 586.4 135.7 597.2 36.7 628.2 138.8 656.1 130.4 628.5 39.5 631.2 40.4 645.8 0 576.7 0 570.1 18.3 571.7 18.8"/><polygon class="a" points="781.7 416.2 781.7 416.2 799.5 415.9 799.2 393.7 711.9 396.9 711.8 394.9 800.2 391.6 800.2 392.6 801.2 392.6 801.6 417.9 794.1 418 833.6 423.8 833.3 424.7 943.7 457 951.3 430.8 846.4 400.1 845.6 400.5 845.3 402.4 842.3 396.8 846 397.9 846 397.9 846.1 398 946.4 343.3 932.4 317.8 849 363.2 849.4 360.4 801 353.3 801 353.3 800.9 353.3 776.6 349.8 692.1 337.5 684.7 394.9 684.6 417.8 781.7 416.2"/><polygon class="a" points="943.5 1218.9 889.4 1244.3 898.9 1264.4 999.7 1217.3 943.5 1218.9"/><polygon class="a" points="383.1 338.7 363.3 349 425.7 472.4 436.9 475 458.1 479.8 383.1 338.7"/><polygon class="a" points="796.1 1095.7 893 1076.9 893.4 1078.9 797.8 1097.4 805 1125.1 918.5 1099.9 921.2 1081.4 921.8 1075.9 922.3 1071.7 927.5 1027.2 924.4 1025.9 1013.7 997.5 1007.5 975.6 893.7 1012.4 893.4 1012.3 728.1 940 723.7 979.8 653.3 969.1 647.3 994.1 720.4 1009.6 716.5 1045.1 641.8 1042.2 640.7 1068.3 713.2 1074.9 708.7 1115.3 797.8 1105.2 795.8 1097.4 796.4 1097.3 796.1 1095.7"/><path class="a" d="M1046.2,1039.9a31.9,31.9,0,0,0,16.8,9V986.1a31.4,31.4,0,0,0-16.3,8.5A32.1,32.1,0,0,0,1046.2,1039.9Z"/><polygon class="a" points="921.9 732.1 922.3 731.6 922.3 731.6 1004 654.5 988.2 638.9 920.8 707.6 921.3 684.6 879.2 732.3 920.7 733.1 920.8 733.1 921.9 732.1"/><path class="a" d="M631.5,289.1a32.1,32.1,0,0,0,34.8,29,31.9,31.9,0,0,0,28.9-34.8,31.5,31.5,0,0,0-11.4-21.7,32,32,0,0,0-45,4.1A31.7,31.7,0,0,0,631.5,289.1Z"/><path class="a" d="M1033.4,892.5a32.4,32.4,0,0,0,10.5,22.1,31.9,31.9,0,0,0,19.1,8.1V858.9A32.1,32.1,0,0,0,1033.4,892.5Z"/><polygon class="a" points="525.3 615.7 524.2 627.7 466.1 614.7 461.5 637.7 543.5 653 540.8 713.6 564.7 715.1 570.4 653.2 572.1 650.4 579.7 595.3 536.5 534.8 525.3 615.7"/><polygon class="a" points="991.6 1255.2 1036.9 1273 1063 1273 1063 1257.4 999.1 1233.5 991.6 1255.2"/><polygon class="a" points="1001.7 1273 1031.5 1273 989.8 1256.6 1001.7 1273"/><polygon class="a" points="1017 565.7 990.3 574 1024.4 702.7 1023.8 702.7 1029.9 823.1 986.7 759.6 970.7 771.8 1030.7 854.1 1031.4 853.6 1031.5 854.5 1063 852.9 1063 676.7 1055.7 703.9 1017 565.7"/><path class="a" d="M1042.1,1150a32,32,0,1,0,20.9,57v-50.1A31.6,31.6,0,0,0,1042.1,1150Z"/><polygon class="a" points="1002.9 1210.7 1001.1 1152 1001.2 1151.8 1013.4 1098.8 1061.5 1097.3 1060.9 1076.4 998.6 1078.2 990.5 1099.1 978.5 1150.9 977.8 1150.9 842.4 1154.9 842.2 1154.9 739.6 1124.6 731.9 1150.8 843 1183.6 843.3 1192.8 841.4 1188.8 737.3 1237.5 749.6 1263.9 843.6 1219.9 843.8 1219.9 1003 1215.2 1002.9 1210.7 1002.9 1210.7"/><polygon class="a" points="77.6 65.2 41.5 111.3 134.5 154.3 77.6 65.2"/><polygon class="a" points="973.2 1273 999.2 1273 987.9 1257.4 973.2 1273"/><polygon class="a" points="1043.1 428.2 988 379.1 970.6 398.6 1022.4 449.7 993.3 478.1 1063 523.3 1063 410.1 1043.8 428.8 1043.1 428.2"/><polygon class="a" points="520.7 324.2 499.4 330.8 533.7 441 533.7 440.7 597.2 447.4 597.2 447.4 598.7 447.6 615.5 289.7 615.6 289.5 659.5 192 634.6 180.8 587 286.4 577.9 285.5 582.1 284.2 548 174.4 520.1 183 551 282.1 551 282.3 540.4 381.3 539.4 381.1 538.5 381.4 520.7 324.2"/><polygon class="a" points="621.8 647.4 572.4 698.7 589.3 718 644.2 667.2 671 690.9 625.5 750.2 646.2 766.2 693.4 710.8 723.8 737.7 808.1 583.9 825.3 669.4 848.9 664.7 826 551.3 826 551.3 778.1 508.2 777.1 508.8 776.7 508.7 664.5 485 659.5 508.2 747.4 526.8 591.7 620.8 621.8 647.4"/><polygon class="a" points="1009.2 320.4 1063 293 1063 264.4 998.3 297.1 1009.2 320.4"/><polygon class="a" points="1063 53.2 1063 53.2 1063 12.5 1031.3 0 1001.8 0 1051.6 68.7 1063 53.2"/><polygon class="a" points="630.2 528.9 651 521 605.7 401.4 600.5 449.8 600.2 449.8 630.2 528.9"/><polygon class="a" points="1022.8 345.4 1063 395.9 1063 352 1043.3 330 1022.8 345.4"/><path class="b" d="M158,633a34,34,0,0,0,24.5-57.6A34.1,34.1,0,0,0,158.6,565a33.7,33.7,0,0,0-24.2,9.5A34,34,0,0,0,158,633Zm-22.2-57.1A32.2,32.2,0,0,1,158,567h.6A32.1,32.1,0,0,1,190,599.6a32,32,0,1,1-54.2-23.7Z"/><polygon class="b" points="0 396.4 0 399.6 3.4 403.9 0 407.3 0 410 6.1 404.1 0 396.4"/><polygon class="b" points="48.7 693.1 73.1 701.7 110.5 594.8 157.4 549.7 156.5 547.9 261.5 512.5 262.5 512.2 253.9 486.8 144.2 523.7 56.8 351.9 27.6 380.3 0 349.5 0 352.5 27.5 383.2 56.3 355.2 143.2 526.2 252.7 489.3 259.9 511 153.6 546.7 154.9 549.2 108.7 593.6 71.8 699.1 51.3 691.9 89.5 582.6 89.8 581.8 0 523.7 0 526.1 87.4 582.7 48.7 693.1"/><path class="b" d="M12.7,171.6A33.7,33.7,0,0,0,.3,194.5a33.8,33.8,0,0,0,30.3,37.3,21.7,21.7,0,0,0,3.6.2,33.5,33.5,0,0,0,21.4-7.6,34,34,0,0,0-42.9-52.8Zm41.6,51.3a32.6,32.6,0,0,1-23.5,7,32,32,0,1,1,23.5-7Z"/><polygon class="b" points="114.5 452.7 145.9 426.8 188.7 483.3 213.7 467.6 172 405.2 196.7 384.8 248.3 439.1 270.1 418.5 222.8 363.3 254.5 337.1 181.4 280.6 176.5 289.3 180.4 282.4 251.3 337.2 220 363.1 267.4 418.3 248.4 436.3 196.9 382.1 169.3 404.9 210.9 467 189.2 480.6 146.2 423.9 115.3 449.4 43.1 272.4 42.6 271.4 0 293.1 0 295.3 41.6 274.1 114.5 452.7"/><polygon class="b" points="67.9 219.5 67.9 219.5 67.3 220 65.5 218.9 32.2 246 0 262.2 0 264.5 33.2 247.7 67.9 219.5"/><polygon class="b" points="83.8 206.8 83.8 206.8 79.7 209.9 83.8 206.8"/><polygon class="b" points="78.5 208.3 83.1 204.7 83.1 204.6 78.5 208.3 78.5 208.3 78.5 208.3"/><polygon class="b" points="79.8 209.9 71.1 217 79.7 209.9 83.8 206.8 90.4 201.5 189.3 262.6 175.3 287.4 176.5 288.2 176 289 176.5 289.3 181.4 280.6 192 262 90.9 199.5 90.3 199.1 83.1 204.7 78.5 208.3 79.8 209.9"/><polygon class="b" points="67.9 219.5 71.1 217 79.8 209.9 78.5 208.3 78.5 208.3 78.5 208.3 65.3 218.7 65.5 218.9 67.3 220 67.9 219.5"/><path class="b" d="M71.9,18A33.5,33.5,0,0,0,93,25.4l3.9-.2a33.9,33.9,0,0,0,22.8-12.6A34.8,34.8,0,0,0,126,0h-2.1a30.4,30.4,0,0,1-5.8,11.3A31.8,31.8,0,0,1,96.7,23.2a31.5,31.5,0,0,1-23.5-6.7A34.8,34.8,0,0,1,61.5,0H59.4A36.8,36.8,0,0,0,71.9,18Z"/><polygon class="b" points="95.4 43.2 94.5 41.8 94.7 44 95.4 43.2"/><polygon class="b" points="94.5 41.6 94.5 41.6 94.5 41.7 94.5 41.6"/><polygon class="b" points="96.3 40.5 96.4 41.1 96.4 41.1 96.7 41.5 97 41.1 96.3 40.5 96.3 40.5 96.3 40.5"/><polygon class="b" points="96.3 40.5 96.3 40.5 96.3 39.9 95.6 39.9 96.3 40.5"/><polygon class="b" points="96.4 41.1 96.4 41.1 96.4 41.1 96.4 41.1"/><path class="b" d="M120.9,176.8l15-21.9h-.1l25.6-14.5L96.7,41.5l-.3-.4h0v-.6h0l-.7-.6L45.4,0H40.5L43,1l.5,1.3.6-.8L94.4,41.6h.1l.9,1.4,63.1,96.5-22.7,12.9L78.5,63l-.8-1.2L38.4,112,133,155.8l-12.8,18.5L0,117.9v2.2l120.2,56.4ZM41.5,111.3,77.6,65.2l56.9,89.1Z"/><polygon class="b" points="28.4 21.8 0 10.6 0 12.8 25.1 22.7 0 53.1 0 56.4 1.2 54.7 28.4 21.8"/><path class="b" d="M3.8,925A34.1,34.1,0,0,0,36,889.3,34,34,0,0,0,.4,857.1H0v2H2.1A32,32,0,0,1,34,889.4,32.1,32.1,0,0,1,3.7,923c-1.2.1-2.5,0-3.7,0v2H3.8Z"/><polygon class="b" points="30.5 853.5 30.5 853.5 32.4 853.4 32.4 853.4 30.5 853.5"/><polygon class="b" points="32.4 851.4 32.4 851.4 34 849.8 34 849.7 32.4 851.4"/><polygon class="b" points="34.2 853.4 34.2 852.5 33.3 853.4 34.2 853.4"/><polygon class="b" points="32.4 853.4 32.4 853.4 32.9 853.8 33.3 853.4 32.9 853.4 32.4 853.4"/><polygon class="b" points="32.4 853.4 32.9 853.4 33.3 853.4 33.3 853.4 33.3 853.4 34.2 852.5 115 768.3 95.3 750.5 32.3 815.1 26.4 699.3 59.9 568.4 30 556.9 0 668.1 0 675.8 31.4 559.5 57.5 569.7 24.4 698.9 24.3 699.1 30.5 819.8 95.4 753.3 112.1 768.4 34 849.8 32.4 851.4 32.4 851.4 0 853.1 0 855.1 30.5 853.5 32.4 853.4"/><path class="b" d="M197.7,100.6a34,34,0,1,0-49.8-38.4A33.3,33.3,0,0,0,151.3,88a33.7,33.7,0,0,0,29.5,17.1A34.8,34.8,0,0,0,197.7,100.6ZM153,87a32,32,0,0,1,27.7-47.9A32,32,0,1,1,153,87Z"/><polygon class="b" points="229.8 90.2 308.8 227.8 308.9 227.9 388.5 299.5 370.3 319.8 284.6 242.9 284.1 242.4 276.1 247 280.5 246.4 293.6 360.7 264.6 364 252.8 260.9 203.2 174.4 202.3 174.9 203.3 174.8 203.9 179.6 250.9 261.5 262.9 366.2 295.8 362.5 282.4 245.6 283.8 244.8 370.4 322.6 391.3 299.3 310.4 226.6 257 133.6 257.2 138 229.8 90.2"/><polygon class="b" points="172.6 121.9 172.8 121.9 172.9 122.5 173.1 122.8 228.4 91 228.3 88.8 172.3 120.9 172.5 120.9 172.6 121.9"/><path class="b" d="M228.3,88.8V91h0l1.4-.8L257.2,138l-.2-4.4L249.9,0h-2.4L223.6,1.3Zm26.5,40.9L230.5,87.5l-.3.2L225.8,3.2,248,2Z"/><polygon class="b" points="202.3 174.9 201.3 175.1 208.1 234.6 186 237.1 172.9 122.5 172.8 121.9 172.6 121.9 172.5 120.9 172.3 120.9 170.7 121.1 184.2 239.4 210.3 236.4 203.9 179.6 203.3 174.8 202.3 174.9"/><path class="b" d="M499.3,489.1a34.1,34.1,0,0,0-25.7,4.4,34,34,0,1,0,25.7-4.4ZM523,529.3a32.1,32.1,0,0,1-38.3,24.2,31.4,31.4,0,0,1-20-14.2,31.9,31.9,0,0,1,27-49,33.5,33.5,0,0,1,7.1.7A32.2,32.2,0,0,1,523,529.3Z"/><polygon class="b" points="424.4 474.2 424.4 474.2 458.8 482 458.8 482 424.4 474.2"/><polygon class="b" points="363.3 349 383.1 338.7 458.1 479.8 436.9 475 460.7 480.4 384.4 336.9 384 336.1 360.6 348.1 423.2 471.9 425.7 472.4 363.3 349"/><polygon class="b" points="461.9 482.7 461.1 481.1 460.8 482.4 461.9 482.7"/><polygon class="b" points="316.4 518.4 330.3 521.6 330.7 519.6 315.3 516.1 250.9 650.2 226 638.9 290 507.5 290 507.4 304 445.9 319 313.2 348 315.6 329.9 452.8 424.4 474.2 458.8 482 458.8 482 446.9 534.9 448.8 535.3 460.8 482.4 461.1 481.1 461.2 480.5 460.7 480.4 436.9 475 425.7 472.4 423.2 471.9 332.1 451.2 350.1 314.9 350.3 313.8 317.2 311 302 445.5 288.1 506.8 223.8 639 223.3 639.9 251.9 652.8 316.4 518.4"/><polygon class="b" points="327.5 533.8 443.6 560.1 449.2 535.4 447.2 535 442.1 557.7 329.9 532.3 334.9 510.3 333.6 510 333.7 509.2 333.1 509.1 330.7 519.6 330.3 521.6 327.5 533.8"/><polygon class="b" points="334.9 510.3 418.4 529.2 418.8 527.3 334 508 333.7 509.2 333.6 510 334.9 510.3"/><path class="b" d="M165.4,639.1c-7.3,5.2-12,13.4-13.2,23.1a38.1,38.1,0,0,0,6.6,26.4,29.6,29.6,0,0,0,21.3,12.8,20.6,20.6,0,0,0,3.5.2,36.8,36.8,0,0,0,21.1-7,33.4,33.4,0,0,0,13.8-22,33.7,33.7,0,0,0-5.7-25.4A34.1,34.1,0,0,0,165.4,639.1Zm45.7,9.3a31.7,31.7,0,0,1,5.5,23.9A32.1,32.1,0,0,1,203.5,693a34.6,34.6,0,0,1-23.2,6.5,28.1,28.1,0,0,1-19.9-12,36.6,36.6,0,0,1-6.2-25c1.1-9.2,5.5-16.9,12.3-21.8a32.4,32.4,0,0,1,18.5-5.8A31.9,31.9,0,0,1,211.1,648.4Z"/><polygon class="b" points="233.7 677.5 234.1 677.4 233.8 676.9 233.1 677.4 233.6 677.5 233.7 677.5"/><polygon class="b" points="235.9 680 235.3 679.1 233.8 679.6 233.6 679.6 233.6 679.6 235.9 680"/><polygon class="b" points="233.6 679.6 233.6 679.6 233.6 679.6 231.9 680.8 231.9 680.8 233.6 679.6"/><polygon class="b" points="233.1 677.4 233.6 677.5 233.1 677.4 232.4 677.3 232.3 678 233.1 677.4"/><path class="b" d="M128.6,825.6l13.9,23.3,134.9-51h.3l92.6-105.3.6-.6L354,671.4h-.1l-6.8-28.6-113,34.5h-1l-.8.6-54,38.2.2.3-69.6,93.1,21.6,15.3Zm-16.8-16.4,68.4-91.6h1.4l-.5-.8,50.8-35.9,1.7-1.2h.2l1.5-.5,110.4-33.7,6,25.4L248.3,701.2l37.3,51.9L354,674.5l14.2,17.3L276.5,796.1,143.3,846.4l-11.7-19.8L233.4,790l-13.3-17.3-24-35.3-65.6,85ZM353,672.5l-67.3,77.3-34.1-47.5ZM131.4,824.6,196,740.8l22.5,33.1,11.6,15.2Z"/><polygon class="b" points="187.3 17.6 214.9 1.5 214 0 211.6 0 212.1 0.8 187.9 14.9 178.5 0 176.1 0 186.7 16.8 187.3 17.6"/><polygon class="b" points="378.3 26.6 378 0 376 0 376.3 28.6 402.1 28.3 401.8 0 399.8 0 400.1 26.3 378.3 26.6"/><path class="b" d="M477.2,655.1a33.6,33.6,0,0,0-24.6,8.3,34,34,0,0,0-11.5,23.3,33.4,33.4,0,0,0,8.3,24.7A33.8,33.8,0,0,0,475,723a34.3,34.3,0,0,0,22.4-8.4,34,34,0,0,0-20.2-59.5Zm29.7,36a31.6,31.6,0,0,1-10.9,22,31.9,31.9,0,0,1-52.9-26.2,31.5,31.5,0,0,1,10.8-22,32,32,0,0,1,21-7.9h2.2a31.8,31.8,0,0,1,29.8,34Z"/><polygon class="b" points="467.8 740.5 468 740.3 467.8 740.5 467.8 740.5"/><polygon class="b" points="417.9 784.1 420 779.6 465.2 740.1 345.1 845.1 300.5 938.8 274.2 926.2 323.7 822.4 327.6 824.3 321.6 817.4 215 862.7 204.3 837.5 302.7 795.8 405.4 706 381.7 658.4 374.7 637.2 421.7 596.1 435.5 611.9 399.2 643.6 423.5 692.4 423.6 692.5 465.2 740.1 462.3 736.7 466.8 738.9 425.2 691.4 401.7 644.1 438.3 612.1 421.9 593.3 372.4 636.5 379.9 659.1 402.9 705.5 301.8 794 201.7 836.5 213.9 865.3 321 819.8 322.1 821 271.5 927.2 301.5 941.4 346.8 846.3 417.9 784.1"/><polygon class="b" points="421.6 780.8 454.1 752.4 421.6 780.8 421.6 780.8"/><path class="b" d="M465.2,740.1,420,779.6l-2.1,4.5-24.6,51.6L417,847l50.8-106.5h0l.2-.2h-.1l.3-.6-1.4-.7-4.5-2.2Zm-1.2,3.7L416.1,844.3,396,834.7l25.6-53.9h0l32.5-28.4Z"/><path class="b" d="M305.7,1.4A34.1,34.1,0,0,0,311.2,0H291.1a30.4,30.4,0,0,0,10,1.7A35.5,35.5,0,0,0,305.7,1.4Z"/><polygon class="b" points="336.4 2.9 336.6 4.3 416.9 62 405 77.3 337.9 25.1 341 45.1 299 8.7 333.9 3.3 333.7 2.2 332.6 1.4 298.8 6.7 298 7.8 343.3 47.1 340.6 29.7 405.4 80.1 419.8 61.6 337.7 2.7 336.4 2.9"/><polygon class="b" points="343.8 50.2 296.4 9.1 296.4 9.1 343.8 50.2 343.8 50.2"/><polygon class="b" points="335.4 1 335.4 1 335.4 1 335.4 1 335.4 1"/><polygon class="b" points="335.7 3.7 334.9 3.1 333.9 3.3 334.9 3.1 335.7 3.7"/><polygon class="b" points="335.7 3.7 336.6 4.3 336.6 4.3 336.4 2.9 334.9 3.1 335.7 3.7"/><polygon class="b" points="333.5 1.3 333.6 1.3 332.6 1.4 332.6 1.4 333.7 2.2 333.5 1.3"/><polygon class="b" points="336.3 1.6 336.2 0.9 335.4 1 335.4 1 336.3 1.6"/><polygon class="b" points="333.5 1.3 333.7 2.2 333.9 3.3 334.9 3.1 336.4 2.9 337.7 2.7 337.7 2.7 336.3 1.6 335.4 1 335.4 1 335.2 0.8 333.6 1.3 333.5 1.3"/><polygon class="b" points="346.5 81 355.9 141.7 353.3 142.1 413.4 200.8 395.5 219.1 327.8 152.9 361.6 234.5 339.6 243.6 300.9 150.2 299.4 150.4 280.7 29.6 278.5 27.9 277.9 24.5 297.7 152.7 299.6 152.4 338.5 246.3 364.3 235.6 333.4 161.1 395.6 221.9 416.2 200.8 357.5 143.5 358.2 143.4 348.8 83 346.8 81.2 346.5 81"/><polygon class="b" points="294.8 9.3 277.6 11.7 279.9 24.2 278 11.9 294.8 9.3"/><polygon class="b" points="297.3 8.9 294.8 9.3 296.4 9.1 296.4 9.1 343.8 50.2 372.3 74.9 359.6 89.6 348 79.6 280.4 26.8 279.9 24.2 277.6 11.7 294.8 9.3 294.8 9.3 294.4 7.4 294.7 7.3 275.3 10 277.9 24.5 278.5 27.9 280.7 29.6 346.5 81 346.8 81.2 348.8 83 359.8 92.5 375.1 74.7 343.3 47.1 298 7.8 297.3 8.9"/><polygon class="b" points="294.4 7.4 294.8 9.3 297.3 8.9 298 7.8 298.8 6.7 299.2 6.1 294.7 7.3 294.4 7.4"/><path class="b" d="M470.2,37.2a34,34,0,0,0,34-34c0-1.1,0-2.1-.1-3.2h-2c.1,1.1.1,2.1.1,3.2a32,32,0,0,1-32,32,32,32,0,0,1-32-32c0-1.1.1-2.1.2-3.2h-2c-.1,1.1-.2,2.1-.2,3.2A34,34,0,0,0,470.2,37.2Z"/><polygon class="b" points="438.2 43.4 438.2 154.4 436.2 162.5 436.2 203.3 394.4 300 424.9 313.2 471.5 205.2 473.1 205.2 509.4 315.8 539.2 306 505.2 202.7 505.2 162.5 503.2 162.8 503.2 203 536.6 304.8 510.7 313.3 474.8 203.9 474.6 203.2 465.4 203.2 469.4 205 423.8 310.5 397.1 299 438.2 203.9 438.2 203.7 438.2 44.2 470.2 44.2 470.3 42.2 436.2 42.2 436.2 51.6 438.2 43.4"/><polygon class="b" points="495 161.9 495 161.9 505.2 160.5 505.2 160.5 495 161.9"/><polygon class="b" points="501.6 44.7 501.6 44.7 502.7 52.3 501.6 44.7"/><polygon class="b" points="505.2 56.1 505.2 42.2 470.3 42.2 503.4 42.7 505.2 56.1"/><path class="b" d="M438.2,43.4l-2,8.2-26,106.5,25.6,6.3.4-1.9,2-8.1Zm-2,110.6-1.9,7.9-21.7-5.2,23.6-96.6Z"/><polygon class="b" points="501.6 44.7 501.6 44.7 502.7 52.3 517.6 158.7 505.2 160.5 495 161.9 495.2 163.1 494.7 163.1 494.8 163.9 503.2 162.8 505.2 162.5 519.9 160.4 505.2 56.1 503.4 42.7 470.3 42.2 470.2 44.2 501.6 44.7"/><polygon class="b" points="481.2 76.1 479.2 76.4 493.2 163.4 494.7 163.1 495.2 163.1 495 161.9 495 161.9 481.2 76.1"/><path class="b" d="M362.4,845.1a31.9,31.9,0,1,0,44.8,4.9A31.9,31.9,0,0,0,362.4,845.1ZM401,893.3a29.9,29.9,0,1,1-18.7-53.2,29.4,29.4,0,0,1,23.3,11.2A29.8,29.8,0,0,1,401,893.3Z"/><polygon class="b" points="381.2 917 381.1 917.2 380.3 918.4 380.9 919.2 381.2 917"/><polygon class="b" points="379.3 915.8 379.3 915.8 379.3 915.8 378.6 916.3 379 916.8 379.3 916.4 379.3 915.8"/><polygon class="b" points="381.2 916.8 381.2 917 381.2 916.8 381.2 916.8"/><polygon class="b" points="380 915.2 379.4 915.2 379.3 915.8 379.3 915.8 380 915.2"/><path class="b" d="M491.3,952.4l-5.8-6.9-40.6-48.1,77.9-29.3-7.2-20.6-87,29.2-.2-.3L380,915.2l-.7.6h0v.6l-.3.4-47.8,75.9,20,11.8,44.4-66.6L441.4,992l-46.8,67.7,19.1,12.3,62.8-86.5,1.3-2.5,105.7,7.2-1.8-26.1ZM477.2,981h-.6l-1.7,3.4-61.8,84.9-15.7-10.2,46.5-67.2-48.5-57.4-44.8,67.4L334,992l46.3-73.6.8-1.2v-.4h0l46.9-37.6.6.7.4-1.2L514.3,850l6,16.9-78.7,29.6L484,946.8l6.3,7.4,89.5,11.7,1.5,22.1Z"/><polygon class="b" points="192.7 926.7 191.8 927.2 189.3 923.2 192.5 928.4 192.7 926.7"/><polygon class="b" points="189.3 923.2 193.1 924.2 193.1 924.2 189.3 923.2"/><path class="b" d="M159.4,884.8l-2.7-23.2L52.5,871.3l106.1,13.5ZM61.6,872.5l93.3-8.7,2.3,19.2-7.7.7Z"/><polygon class="b" points="149.5 885.7 149.5 885.7 58.7 874.1 149.4 885.7 149.5 885.7"/><polygon class="b" points="149.3 919.9 149.3 919.9 150.2 919.9 150.9 942.1 150.2 919.9 149.3 919.9"/><polygon class="b" points="36.9 923.4 36.7 930.4 37 930.4 36.9 923.4 36.9 923.4"/><polygon class="b" points="131.8 940.5 148.9 940.2 131.8 940.5 131.8 940.5"/><polygon class="b" points="36.9 922.6 36.9 922.8 36.9 922.8 36.9 922.6"/><polygon class="b" points="291.1 876.8 275.4 851.3 198 890.6 198.1 889.9 158.6 884.8 52.5 871.3 44.5 870.3 43.5 870.2 36.9 922.4 36.9 922.5 37 922.5 37.1 921.4 38.9 921.6 38.9 922.6 45.3 872.4 58.7 874.1 149.5 885.7 195.8 891.6 195.5 894.1 274.7 853.9 288.2 876 193.2 924.2 193.1 924.2 189.3 923.2 191.8 927.2 192.7 926.7 193.4 926.3 294.1 952.6 287.2 975.3 181.3 947.7 181.6 946.8 145.4 942.2 150.9 942.1 131.9 942.5 131.8 942.5 179 948.5 178.8 949.1 288.5 977.7 296.6 951.1 196.1 925 291.1 876.8"/><polygon class="b" points="150.9 942.1 150.2 919.9 149.3 919.9 149.3 920.9 148.2 921 148.9 940.2 131.8 940.5 39.1 942.4 38.9 922.6 38.9 921.6 37.1 921.4 37 922.5 36.9 922.5 36.9 922.5 36.9 922.6 36.9 922.8 36.9 922.8 36.9 923.4 36.9 923.4 36.9 923.4 37 930.4 37.1 944.5 131.8 942.5 131.9 942.5 150.9 942.1"/><polygon class="b" points="149.2 918.9 64.8 922.3 64.9 924.3 148.2 921 149.3 920.9 149.3 919.9 149.3 919.9 149.2 918.9"/><polygon class="b" points="537.1 64.6 544.8 0 542.8 0 535.3 62.7 517.2 63.6 524.8 0 522.8 0 515 65.7 537.1 64.6"/><polygon class="b" points="1019.9 345.1 1063 399.1 1063 395.9 1022.8 345.4 1043.3 330 1063 352 1063 349 1043.6 327.3 1019.9 345.1"/><polygon class="b" points="987.8 376.3 967.8 398.7 1019.5 449.7 990.1 478.4 1063 525.7 1063 523.3 993.3 478.1 1022.4 449.7 970.6 398.6 988 379.1 1043.1 428.2 1043.8 428.8 1063 410.1 1063 407.3 1043.8 426.1 987.8 376.3"/><polygon class="b" points="1008.2 323.2 1063 295.3 1063 293 1009.2 320.4 998.3 297.1 1063 264.4 1063 262.2 995.7 296.2 1008.2 323.2"/><polygon class="b" points="1063 10.3 1036.8 0 1031.3 0 1063 12.5 1063 10.3"/><polygon class="b" points="1063 56.6 1063 53.2 1063 53.2 1051.6 68.7 1001.8 0 999.3 0 1051.6 72.1 1063 56.6"/><polygon class="b" points="1056.3 116.5 1056.5 116.7 1063 119.8 1063 117.6 1057.8 115.1 972.3 1.3 973.5 0 970.8 0 969.7 1.2 1056.3 116.5"/><path class="b" d="M1009.8,273.6a22.3,22.3,0,0,0,3.7.2,34,34,0,1,0-21.4-60.4,34.1,34.1,0,0,0-5.2,47.8A33.7,33.7,0,0,0,1009.8,273.6Zm-16.5-58.7a32.2,32.2,0,0,1,23.5-6.9,32,32,0,0,1,16.7,56.7,32,32,0,0,1-45-4.8A32.1,32.1,0,0,1,993.3,214.9Z"/><polygon class="b" points="1016.1 188.5 1016.1 188.5 1006.9 196.2 1006.9 196.2 1016.1 188.5"/><polygon class="b" points="1008.2 197.8 1017.1 190.6 1017 190.3 1008.2 197.8 1008.2 197.8"/><polygon class="b" points="920.5 0 917.3 0 891 20.9 875.1 0 872.6 0 890.7 23.7 920.5 0"/><polygon class="b" points="953.7 81.6 963.3 78.6 925.5 0 923.3 0 961.3 79.2 953.7 81.6"/><polygon class="b" points="839.4 61.9 787.2 8.1 766.5 29.2 812.9 82.9 781 108.2 932.2 211 961.7 327.1 961.9 328.1 987.6 320.7 964.8 232.8 999.5 204.8 998.7 202.9 998.9 202.7 964.4 230.5 961.6 228.6 985.2 319.3 963.3 325.6 934 210.1 933.9 209.7 784.4 108.1 815.8 83.2 769.3 29.3 787.2 10.9 839.2 64.6 867.2 42.3 838.2 0 835.8 0 864.5 41.9 839.4 61.9"/><polygon class="b" points="954.2 82.9 954.9 82.7 955.1 83.2 982.1 74.7 1021.2 184.2 1016.1 188.5 1006.9 196.2 1008.2 197.8 1017 190.3 1023.5 184.8 983.3 72.2 963.3 78.6 953.7 81.6 954.2 82.9"/><polygon class="b" points="1006.9 196.2 1006.9 196.2 998.9 202.7 998.7 202.9 999.5 204.8 999.6 205.1 1008.2 197.8 1008.2 197.8 1006.9 196.2"/><path class="b" d="M637.2,264.5a33.8,33.8,0,0,0-7.7,24.8,34.1,34.1,0,0,0,33.8,30.9h3.2a34.1,34.1,0,0,0,23-12.2,33.9,33.9,0,0,0-4.4-47.8A34.1,34.1,0,0,0,637.2,264.5Zm46.6-2.9a31.5,31.5,0,0,1,11.4,21.7,31.9,31.9,0,0,1-28.9,34.8,32,32,0,0,1-27.5-52.4A32,32,0,0,1,683.8,261.6Z"/><polygon class="b" points="712.2 277.6 714 277.6 712.9 276.7 712.2 277.6"/><polygon class="b" points="876.1 250.4 876.2 272.7 716.5 275.5 714.8 277.5 878.2 274.6 878.1 248.4 739.4 248 737.7 250 876.1 250.4"/><polygon class="b" points="746.4 131.7 737.2 142.6 747.1 150.8 738.8 143.9 748.9 131.7 658.7 13.5 675.6 0 672.4 0 655.9 13.2 746.4 131.7"/><polygon class="b" points="736 144.2 736 144.2 745.2 151.8 745.2 151.8 736 144.2"/><polygon class="b" points="768.1 113.2 816.6 153.5 928 227.1 912.7 251.9 798.7 173.5 714.2 275.1 672.5 240.5 672.3 240.8 672.3 240.8 671.2 242 712.9 276.7 714 277.6 714.4 278 714.8 277.5 716.5 275.5 737.7 250 739.4 248 799.1 176.2 913.3 254.7 930.8 226.5 817.9 152 769.6 111.8 685.2 0 682.6 0 768 113.1 768.1 113.2"/><polygon class="b" points="672.3 240.8 654.4 225.9 727.9 137.5 736 144.2 745.2 151.8 746.1 150.8 746.7 151.3 747.1 150.8 737.2 142.6 727.6 134.6 651.5 226.1 671 242.3 671.2 242 672.3 240.8 672.3 240.8"/><polygon class="b" points="745.2 151.8 745.2 151.8 690.4 217.7 692 219 747.6 152.1 746.7 151.3 746.1 150.8 745.2 151.8"/><polygon class="b" points="842.3 396.8 846 397.9 846 397.9 842.3 396.8"/><polygon class="b" points="845.6 400.5 844.6 401.1 842.3 396.8 845.3 402.4 845.6 400.5"/><polygon class="b" points="846.4 400.1 846.4 400.1 844.6 401.1 845.6 400.5 846.4 400.1"/><path class="b" d="M680.5,368.1A34,34,0,1,0,642,396.9a40.7,40.7,0,0,0,5,.3,33.9,33.9,0,0,0,33.5-29.1Zm-38.2,26.8a32.1,32.1,0,0,1-27.1-36.3,32,32,0,0,1,31.7-27.4l4.6.3a32,32,0,0,1,27,36.3A31.5,31.5,0,0,1,666,388.9,31.9,31.9,0,0,1,642.3,394.9Z"/><polygon class="b" points="708 337.8 807 328.3 809.1 350.5 801 351.3 809.4 352.5 811.3 352.3 808.8 326.2 699.7 336.5 708 337.8"/><polygon class="b" points="801 353.3 800.9 353.3 801 353.3 801 353.3"/><polygon class="b" points="692.1 337.5 692.1 337.5 776.6 349.8 692.1 337.5"/><polygon class="b" points="708 337.8 699.7 336.5 690.4 335.2 682.8 394.4 682.9 393.7 684.7 394 684.7 394.9 692.1 337.5 692.1 337.5 776.6 349.8 800.9 353.3 801 353.3 849.4 360.4 849 363.2 932.4 317.8 946.4 343.3 846.1 398 846 397.9 842.3 396.8 844.6 401.1 846.4 400.1 846.4 400.1 951.3 430.8 943.7 457 833.3 424.7 833.6 423.8 794.1 418 781.6 418.2 831 425.4 830.8 426.1 945 459.5 953.8 429.4 848.8 398.7 949.1 344.1 933.2 315 851.5 359.5 851.7 358.7 809.4 352.5 801 351.3 708 337.8"/><polygon class="b" points="781.7 416.2 799.5 415.9 781.7 416.2 781.7 416.2"/><polygon class="b" points="682.7 395.7 682.4 403.9 682.7 403.9 682.7 395.7 682.7 395.7"/><polygon class="b" points="801.6 417.9 801.2 392.6 800.2 392.6 800.3 393.6 799.2 393.7 799.5 415.9 781.7 416.2 684.6 417.8 684.7 394.9 684.7 394 682.9 393.7 682.8 394.4 682.6 395.7 682.7 395.7 682.7 395.7 682.7 403.9 682.6 419.8 781.6 418.2 794.1 418 801.6 417.9"/><polygon class="b" points="711.8 394.9 711.9 396.9 799.2 393.7 800.3 393.6 800.2 392.6 800.2 391.6 711.8 394.9"/><path class="b" d="M887.6,807.5a33.9,33.9,0,0,0,23.5-9.5,33.3,33.3,0,0,0,10.4-23.9,33.9,33.9,0,0,0-33.3-34.6,33.4,33.4,0,0,0-24.2,9.4,33.9,33.9,0,0,0-1,48.1,33.3,33.3,0,0,0,23.9,10.4Zm-32.1-34.7a32.1,32.1,0,0,1,32-31.3h.7a32,32,0,0,1-.6,64h-.7A32,32,0,0,1,855.5,772.8Z"/><polygon class="b" points="920.8 733.1 920.8 733.1 921.9 732.1 920.8 733.1"/><polygon class="b" points="921.5 735.1 921.5 735.1 921.5 735.1 921.5 735.1 921.5 735.1"/><polygon class="b" points="879.4 734.3 918.7 735.1 919.4 734.4 919.5 733.1 920.7 733.1 879.2 732.3 921.3 684.6 920.8 707.6 988.2 638.9 1004 654.5 922.3 731.6 922.3 733.1 923.6 733.2 922.3 734.4 922.3 734.4 1006.2 655.3 1006.9 654.5 988.1 636.1 922.9 702.6 923.3 682.3 878.4 733.2 879.4 734.3"/><polygon class="b" points="876.6 732.2 889.5 717.7 876.6 732.2 876.6 732.2"/><polygon class="b" points="921.9 732.1 920.8 733.1 922.3 733.1 922.3 731.6 922.3 731.6 921.9 732.1"/><polygon class="b" points="921.5 735.1 921.5 735.1 922.3 735.1 922.3 734.4 922.3 734.4 921.5 735.1"/><polygon class="b" points="919.4 735.1 919.4 734.4 918.7 735.1 918.7 735.1 919.6 735.1 919.4 735.1"/><polygon class="b" points="922.3 734.4 923.6 733.2 922.3 733.1 920.8 733.1 920.8 733.1 920.7 733.1 919.5 733.1 919.4 734.4 919.4 735.1 919.6 735.1 921.3 735.3 921.5 735.1 921.5 735.1 922.3 734.4"/><polygon class="b" points="918.4 467.7 888.1 459.7 858.7 570.8 856.5 570.8 853.6 717.5 853.8 713.7 855.8 711.7 858.5 572.8 860.2 572.9 889.5 462.2 915.9 469.2 890.4 565.3 956.1 481.3 979.1 499.2 920.6 574.1 923.5 574.1 922.1 643.9 922.4 643.6 924.1 641.6 925.5 572.2 924.6 572.1 981.9 498.9 955.8 478.5 894.9 556.4 918.4 467.7"/><polygon class="b" points="874.8 732.2 855.4 731.8 855.6 717.6 855 732.1 874.8 732.2 874.8 732.2 874.8 732.2"/><polygon class="b" points="922.1 643.9 855.8 711.7 853.8 713.7 853.6 717.5 852.9 734.1 874.7 734.2 874.6 734.2 874.8 732.2 855 732.1 855.6 717.6 855.8 714.5 923.8 645 935.3 631.9 952 646.7 889.5 717.7 876.6 732.2 877.5 732.2 878.4 733.2 923.3 682.3 954.9 646.5 935.1 629.1 924.1 641.6 922.4 643.6 922.1 643.9"/><polygon class="b" points="877.5 732.2 876.6 732.2 876.6 732.2 874.8 732.2 874.8 732.2 874.8 732.2 874.6 734.2 874.7 734.2 879.9 734.9 879.4 734.3 878.4 733.2 877.5 732.2"/><path class="b" d="M1040.2,868a34,34,0,0,0,2.4,48.1,33.8,33.8,0,0,0,20.4,8.6v-2a31.9,31.9,0,0,1-19.1-8.1,32.4,32.4,0,0,1-10.5-22.1,32.1,32.1,0,0,1,29.6-33.6v-2A33.8,33.8,0,0,0,1040.2,868Z"/><polygon class="b" points="1018.7 564.2 1018.4 563.2 987.8 572.6 1021.9 700.8 1021.7 700.8 1027.5 816.1 987.2 756.7 967.9 771.4 1029.6 855.9 1029.6 856.6 1030.1 856.6 1030.3 856.8 1030.6 856.6 1063 854.9 1063 852.9 1031.5 854.5 1031.4 853.6 1030.7 854.1 970.7 771.8 986.7 759.6 1029.9 823.1 1023.8 702.7 1024.4 702.7 990.3 574 1017 565.7 1055.7 703.9 1063 676.7 1063 669.1 1055.7 696.3 1018.7 564.2"/><path class="b" d="M827.4,535.5h1.9a32.1,32.1,0,1,0-1.9.1Zm-23.8-55.4a32.3,32.3,0,0,1,23.9-10.6,32,32,0,1,1-21.4,55.8A32.1,32.1,0,0,1,803.6,480.1Z"/><path class="b" d="M618.9,647.5l-49.2,51.1,19.5,22.3,55-51,24,21.3-45.5,59.4,23.8,18.3,47.1-55.3,30.8,27.3,82.8-151.2,16.6,82.1,27.4-5.6L828.1,551.6l.4-.8-50.2-45.1-1.5.9L663.9,482.8l-1-.2-5.7,27.2L742,527.7,588.4,620.5Zm40.6-139.3,5-23.2,112.2,23.7h.4l1-.6L826,551.3h0l22.9,113.4-23.6,4.7-17.2-85.5L723.8,737.7l-30.4-26.9-47.2,55.4-20.7-16L671,690.9l-26.8-23.7L589.3,718l-16.9-19.3,49.4-51.3-30.1-26.6,155.7-94Z"/><path class="b" d="M716,746.7a34,34,0,1,0,8.1,47.4A34.1,34.1,0,0,0,716,746.7Zm6.4,46.2a32,32,0,0,1-44.6,7.7,32,32,0,0,1,13.1-57.7,35.1,35.1,0,0,1,5.5-.5,32,32,0,0,1,26,50.5Z"/><polygon class="b" points="955.8 837.7 772.7 776.9 815.5 677.1 787.7 666.4 744 769.4 719.2 804.4 720.5 806.1 720 806.7 720 806.7 745.7 770.5 745.8 770.4 788.8 669 812.8 678.3 770.5 777.1 770.1 778.1 952.6 838.7 929.1 871.3 988.6 910.4 976.4 933 911.7 895.6 890.8 924.6 948.3 972.4 931.6 992.5 873.3 948.9 849.6 981.9 790.2 914.8 796.9 910.4 788.5 915.9 849.7 985.1 873.8 951.8 931.9 995.3 951.1 972.2 893.5 924.3 912.2 898.3 977.2 935.8 991.2 909.8 932 870.8 955.8 837.7"/><polygon class="b" points="708.1 823.7 707.6 824.4 707.6 824.4 708.1 823.7"/><polygon class="b" points="709.6 818 709.6 818 706.6 822.2 706.2 822.9 706.2 822.9 709.5 818 709.6 818"/><polygon class="b" points="720 806.7 720 806.7 711.2 819.2 720 806.7"/><polygon class="b" points="796.6 910 795.6 910.7 794.7 909.5 771.1 925 703.6 830.4 707.6 824.4 708.1 823.7 711.2 819.2 709.5 818 706.2 822.9 701.1 830.4 770 927 770.6 927.8 788.5 915.9 796.9 910.4 796.6 910"/><polygon class="b" points="711.2 819.2 720 806.7 720.5 806.1 719.2 804.4 719 804.2 709.6 818 709.5 818 711.2 819.2"/><polygon class="b" points="734.8 829.7 733.2 830.9 794.7 909.5 795.6 910.7 796.6 910 797.2 909.4 734.8 829.7"/><path class="b" d="M558,518.7l3.6.2A34,34,0,0,0,588,463.5a33.3,33.3,0,0,0-22.8-12.4,34,34,0,0,0-30.1,55.1A34,34,0,0,0,558,518.7Zm-28.2-37.2a32,32,0,0,1,31.7-28.6H565a32,32,0,1,1-28.3,52A31.7,31.7,0,0,1,529.8,481.5Z"/><polygon class="b" points="533.7 440.7 533.7 441 533.9 441.6 533.6 441.7 533.9 442.6 533.7 442.7 598 449.5 597.2 447.4 533.7 440.7"/><polygon class="b" points="548.9 282.3 539 376.2 540.4 380.9 539.4 381.1 540.4 381.3 551 282.3 551 282.1 520.1 183 548 174.4 582.1 284.2 577.9 285.5 587 286.4 634.6 180.8 659.5 192 615.6 289.5 615.5 289.7 598.7 447.6 604.6 392.8 606.1 397 617.5 290.2 661.8 192 662.2 191 633.6 178.2 585.8 284.3 584.2 284.1 549.6 172.8 549.3 171.9 517.6 181.7 548.9 282.3"/><path class="b" d="M598.7,447.6l-1.5-.2h0l.8,2.1,31,82,24.6-9.4L606.1,397l-1.5-4.2Zm7-46.2L651,521l-20.8,7.9-30-79.1h.3Z"/><polygon class="b" points="533.6 441.7 533.9 441.6 533.7 441 499.4 330.8 520.7 324.2 538.5 381.4 539.4 381.1 540.4 380.9 539 376.2 522 321.7 496.9 329.5 532.2 443.1 533.7 442.7 533.9 442.6 533.6 441.7"/><polygon class="b" points="727.4 0 722.3 0 714.8 3.2 713.4 0 711.3 0 713.8 5.9 727.4 0"/><polygon class="b" points="567.5 19.5 569.5 20.2 557 134.5 588.1 137.9 598.1 46.7 626.9 141.3 658.6 131.7 631.5 42.7 632.4 43 648 0 645.8 0 631.2 40.4 628.5 39.5 656.1 130.4 628.2 138.8 597.2 36.7 586.4 135.7 559.2 132.7 571.7 18.8 570.1 18.3 576.7 0 574.6 0 567.8 18.5 567.5 19.5"/><path class="b" d="M525.8,944.2a33.8,33.8,0,0,0,23.1,9.1,34,34,0,0,0,23.1-59,36,36,0,0,0-23.5-10,30.1,30.1,0,0,0-22.8,10,38.2,38.2,0,0,0-9.9,25.3C515.7,929.4,519.3,938.2,525.8,944.2Zm1.4-48.5a27.8,27.8,0,0,1,20.8-9.4h.5a33.9,33.9,0,0,1,22.1,9.5,32,32,0,1,1-43.4,47c-6.2-5.7-9.5-13.9-9.4-23.2A35.8,35.8,0,0,1,527.2,895.7Z"/><polygon class="b" points="595.9 913.1 595.9 913.1 597.3 914.4 597.3 914.4 595.9 913.1"/><polygon class="b" points="598.4 915 597.9 915 597.9 915 597.9 915 598.6 915.6 599 915.2 598.5 915 598.4 915"/><polygon class="b" points="598.7 913 598.8 913 598.7 913 598.7 913"/><polygon class="b" points="598.9 913 599.1 913.1 600.4 913.7 601.1 912.9 598.9 913"/><polygon class="b" points="597.3 914.4 597.3 914.4 597.4 915 597.9 915 597.9 915 597.3 914.4"/><polygon class="b" points="598.5 915 598.4 915 598.5 915 598.5 915"/><path class="b" d="M717,936.6v.2l19.4-18.2-78.5-117v-.2L530.3,733.3l-16.7,21.3,1.8.9L492,767.9l56.9,101.3-.3.3,47.3,43.6,1.4,1.3.6.6h.6l.5.2,107.5,48.9ZM600.4,913.7l-1.3-.6h-.4l-47.3-43.7.6-.7-1.3-.2-56-99.7,20.4-10.8,54,92.8,28.4-31.8,15.4-15.5-96.3-49.5,14.3-18.1L656.4,803l77.4,115.3-16.4,15.4-57.6-86.8-43.7,46.5L714.7,937l-9.3,24.4ZM516.2,756l93.3,47.9L596,817.5l-26.6,29.9-53.1-91.3Zm200,179.5-96.7-42.8,40-42.6Z"/><polygon class="b" points="585.3 568.5 585.4 568.3 583.9 566.2 555.1 521 555.1 521 585.3 568.5"/><polygon class="b" points="592.5 526.1 591.1 525.9 590.9 527.3 636.5 585 622.6 595 586.6 544.9 584.1 562.8 585.6 565.1 585.8 565.4 587.9 550.1 622.1 597.8 639.4 585.4 591.3 524.6 591.3 524.6 592.5 526.1"/><polygon class="b" points="564.4 531.9 557.7 521.3 589.6 525.7 589.8 525.9 589.6 525.7 588.8 525.6 588.8 524.6 587.9 523.4 558.1 519.4 557 520.3 564.4 531.9"/><polygon class="b" points="590.9 527.3 591.1 525.9 589.6 525.7 589.8 525.9 590.9 527.3 590.9 527.3"/><polygon class="b" points="588.9 523.6 589.1 523.6 587.9 523.4 587.9 523.4 588.8 524.6 588.9 523.6"/><polygon class="b" points="591.3 524.6 591.3 524.6 591.5 523.9 590.7 523.8 591.3 524.6"/><polygon class="b" points="588.9 523.6 588.8 524.6 588.8 525.6 589.6 525.7 591.1 525.9 592.5 526.1 591.3 524.6 590.7 523.8 590.6 523.6 589.1 523.6 588.9 523.6"/><polygon class="b" points="553.7 520.8 553.7 520.8 538.5 518.5 537.3 528.9 538.7 518.7 553.7 520.8"/><polygon class="b" points="522.4 625.3 464.5 612.3 459.1 639.3 541.5 654.7 538.8 715.5 566.5 717.3 572.3 653.9 574.1 651.1 581.4 597.5 579.9 595.7 579.7 595.3 572.1 650.4 570.4 653.2 564.7 715.1 540.8 713.6 543.5 653 461.5 637.7 466.1 614.7 524.2 627.7 525.3 615.7 536.5 534.8 534.9 532.5 535.4 528.4 523.3 615.4 522.4 625.3"/><polygon class="b" points="536.5 534.8 579.7 595.3 579.9 595.7 581.4 597.5 586.1 603.2 603.9 591.9 585.8 565.4 585.6 565.1 584.1 562.8 564.4 531.9 557 520.3 556 521.1 555.1 521 583.9 566.2 585.4 568.3 601.1 591.3 586.6 600.6 581.5 594.5 537 532 537.3 528.9 538.5 518.5 553.7 520.8 553.7 520.8 553.9 518.8 554.2 518.8 536.7 516.2 535.4 528.4 534.9 532.5 536.5 534.8"/><polygon class="b" points="553.9 518.8 553.7 520.8 555.1 521 555.1 521 556 521.1 557 520.3 558.1 519.4 558.7 518.9 554.2 518.8 553.9 518.8"/><path class="b" d="M126.7,1260.4a33.5,33.5,0,0,0-12.6-22.7c-14.2-11.3-37.3-7.8-49.4,7.4a29.9,29.9,0,0,0-6.3,24.1,26.2,26.2,0,0,0,.9,3.8h2.1a31.1,31.1,0,0,1-1.1-4.1,28.4,28.4,0,0,1,6-22.5A36,36,0,0,1,94.2,1233a29.9,29.9,0,0,1,18.7,6.2,32.1,32.1,0,0,1,11.8,21.5,30,30,0,0,1-1,12.3h2.1A33.2,33.2,0,0,0,126.7,1260.4Z"/><polygon class="b" points="43.4 1271.9 0 1255.6 0 1257.7 40.7 1273 45.4 1273 43.7 1271.6 43.4 1271.9"/><polygon class="b" points="244.8 1273 249.8 1273 249.8 1272.7 244.8 1273"/><path class="b" d="M13.7,1181.1A33.4,33.4,0,0,0,0,1154.9v2.5a31.8,31.8,0,0,1,11.7,23.8A31.7,31.7,0,0,1,0,1206.9v2.5A33.7,33.7,0,0,0,13.7,1181.1Z"/><polygon class="b" points="0 1089.7 0 1099.5 0.3 1099.5 0 1089.7"/><path class="b" d="M5.8,1051.7a33.6,33.6,0,0,0,23.8-9.7,33.9,33.9,0,0,0,10.2-23.9,34.1,34.1,0,0,0-9.7-24.2A34.1,34.1,0,0,0,0,984.2v2a37.9,37.9,0,0,1,5.8-.5,32,32,0,0,1,22.9,9.6,32.1,32.1,0,0,1,9.1,22.7,32,32,0,0,1-9.6,22.6,31.8,31.8,0,0,1-22.4,9.1H5.5a33.1,33.1,0,0,1-5.5-.5v2a32.9,32.9,0,0,0,5.4.5Z"/><polygon class="b" points="55.5 1020.2 55.9 1020.2 55.3 1019.6 54.7 1020.2 55.3 1020.2 55.5 1020.2"/><polygon class="b" points="57.8 1022.2 55.5 1022.2 55.5 1022.2 57.9 1022.3 57.8 1022.2"/><polygon class="b" points="54.7 1020.2 55.3 1020.2 54.7 1020.2 54 1020.2 54 1020.9 54.7 1020.2"/><polygon class="b" points="270.4 1223.7 282.1 1193.9 163.2 1129.9 82.1 1047 172.3 1044.5 172.6 1017.9 55.9 1020.2 55.5 1020.2 55.3 1020.2 54.7 1020.2 54 1020.9 7.4 1066.5 7 1066.6 7 1066.9 6.7 1067.2 7.2 1067.7 27.3 1169.3 27.5 1170.3 51.3 1166.1 35.1 1096.2 115.8 1178.7 116 1178.5 176 1273 178.4 1273 117 1176.4 116.3 1175.4 115.9 1175.8 31.5 1089.7 48.9 1164.5 29 1168 9.3 1068.1 10.2 1067.9 9.5 1067.2 55.5 1022.2 55.5 1022.2 57.8 1022.2 170.5 1020 170.3 1042.5 77.4 1045.1 161.9 1131.4 162 1131.5 279.6 1194.8 269.3 1220.9 136.7 1151.6 211.6 1273 213.9 1273 142.2 1156.7 270.4 1223.7"/><path class="b" d="M462.1,1145.3a34,34,0,1,0,15.4,45.6A34.1,34.1,0,0,0,462.1,1145.3Zm13.6,44.7a32,32,0,1,1-28.6-46.2,32.7,32.7,0,0,1,14.1,3.3,32,32,0,0,1,16.1,18.5A31.4,31.4,0,0,1,475.7,1190Z"/><polygon class="b" points="429.7 1129.6 428.3 1128.3 515.9 1058.7 499.2 1037.7 408.5 1109.7 269 978.6 268 977.6 250.2 1014.3 187.7 980.7 171.5 1005.5 235.4 1044.7 221.4 1073.6 151.9 1045.7 140.7 1073.6 206.7 1104 188.7 1141 375 1184.4 375.9 1273 377.9 1273 377 1182.8 191.6 1139.7 209.3 1103.1 143.3 1072.5 153 1048.3 221.6 1075.8 222.4 1076.1 238 1044 174.3 1004.8 188.4 983.4 251.1 1017.1 268.6 981 407.7 1111.7 408.4 1112.3 498.9 1040.5 513.1 1058.4 426.1 1127.4 425.2 1128.1 427.2 1130.1 399 1187.3 398.9 1187.5 399.7 1273 401.7 1273 400.9 1187.9 429.7 1129.6"/><path class="b" d="M330.8,1239.8a30.3,30.3,0,0,0-34.4-25.2,30.2,30.2,0,0,0-25.2,34.4,30.3,30.3,0,0,0,20.2,24h19.2A30.4,30.4,0,0,0,330.8,1239.8Zm-25.5,32.5a28.2,28.2,0,0,1-8.6-55.7,31.1,31.1,0,0,1,4.3-.3,28.2,28.2,0,0,1,4.3,56Z"/><path class="b" d="M470.1,1242.1a34.1,34.1,0,0,0-33.9,30.9h2a32,32,0,0,1,63.7,0h2A33.9,33.9,0,0,0,470.1,1242.1Z"/><polygon class="b" points="537.7 1238.3 526.7 1258.1 526.5 1258 526.5 1258 526.7 1258.1 537.7 1238.3"/><polygon class="b" points="525.9 1255.4 552.4 1207.9 551.8 1213.1 602.6 1122 646.2 1004.1 624 999.3 581 1107.3 580.5 1107 575.5 997.3 548 996.7 555 1095 511 1174 510 1179.8 509 1179.6 509.9 1180.1 557 1095.5 550.2 998.8 573.6 999.2 578.4 1106.3 575 1106.2 582 1110.1 625.3 1001.6 643.5 1005.6 600.8 1121.1 525.9 1255.4 481.2 1230.5 481.1 1231.5 480.7 1231.4 480.7 1232.3 480.4 1232.3 524.6 1257 524.8 1254.8 525.9 1255.4"/><polygon class="b" points="552.4 1207.9 525.9 1255.4 524.8 1254.8 524.6 1257 522.7 1273 524.7 1273 526.5 1258 526.5 1258 526.7 1258.1 537.7 1238.3 549.2 1217.7 542.6 1273 544.6 1273 551.8 1213.1 552.4 1207.9"/><polygon class="b" points="480.7 1231.4 481.1 1231.5 481.2 1230.5 499.8 1123.5 517.6 1123.9 508 1179.4 509 1179.6 510 1179.8 511 1174 520 1121.9 498.1 1121.5 479.1 1231.2 478.9 1232.3 480.4 1232.3 480.7 1232.3 480.7 1231.4"/><polygon class="b" points="989.3 1255.9 988.1 1254.2 970.5 1273 973.2 1273 987.9 1257.4 999.2 1273 1001.7 1273 989.8 1256.6 1031.5 1273 1036.9 1273 991.6 1255.2 999.1 1233.5 1063 1257.4 1063 1255.3 997.9 1230.9 989.3 1255.9"/><polygon class="b" points="916.9 1273 920.2 1273 922.3 1271.3 923.2 1273 925.4 1273 923.1 1268.1 916.9 1273"/><polygon class="b" points="822 1253 835.7 1273 838.1 1273 824.8 1253.5 846.3 1238.7 872.5 1273 875 1273 846.7 1236 822 1253"/><polygon class="b" points="672 1273 675.2 1273 679.8 1269.3 682.6 1273 685.1 1273 680.2 1266.5 672 1273"/><path class="b" d="M1042,1148a33.3,33.3,0,0,0-23.7,10.6,33.9,33.9,0,0,0-9.2,24.4,33.8,33.8,0,0,0,33.9,32.9h1.1a33.5,33.5,0,0,0,18.9-6.4V1207a32,32,0,1,1,0-50.1v-2.5A33.5,33.5,0,0,0,1042,1148Z"/><polygon class="b" points="1004.7 1217.1 1005.1 1217.1 1004.7 1217.1 1004.7 1217.1"/><polygon class="b" points="999.7 1217.3 943.5 1218.9 943.5 1218.9 999.7 1217.3 999.7 1217.3"/><polygon class="b" points="997.9 1076.2 997.2 1076.3 988.6 1098.4 976.9 1148.9 842.6 1152.9 738.3 1122.1 729.4 1152.1 841 1185.1 841.1 1186.7 734.6 1236.6 748.6 1266.6 844.1 1221.9 938.5 1219.1 943 1216.9 943.3 1216.9 1003 1215.2 843.8 1219.9 843.6 1219.9 749.6 1263.9 737.3 1237.5 841.4 1188.8 843.3 1192.8 843 1183.6 731.9 1150.8 739.6 1124.6 842.2 1154.9 842.4 1154.9 977.8 1150.9 978.5 1150.9 990.5 1099.1 998.6 1078.2 1060.9 1076.4 1061.5 1097.3 1013.4 1098.8 1001.2 1151.8 1001.1 1152 1002.9 1210.7 1005 1215.3 1003.1 1152.2 1015 1100.7 1063 1099.3 1063 1080.1 1062.8 1074.3 997.9 1076.2"/><path class="b" d="M1002.9,1210.7v4.5l-59.7,1.7H943l-4.5,2.2-51.7,24.2,11.1,23.8,106.8-50h.4v-.2l.6-.2-.7-1.4-2.1-4.6Zm-113.5,33.6,54.1-25.4h0l56.2-1.6h0l-100.8,47.1Z"/><path class="b" d="M680.8,1082.4a33.5,33.5,0,0,0-26,1.2,33.9,33.9,0,0,0-17.6,19.2h0a34,34,0,0,0,20.4,43.6,35.7,35.7,0,0,0,11.5,2,34,34,0,0,0,11.7-66Zm18.5,42.9a32,32,0,0,1-60.2-21.8h0a31.6,31.6,0,0,1,16.5-18.1,32,32,0,0,1,43.7,39.9Z"/><polygon class="b" points="687.8 1163.9 688.3 1165 687.1 1164.5 686.6 1165.9 685.7 1164 685.6 1164 735.1 1267.3 721.9 1273 726.9 1273 737.8 1268.3 687.8 1163.9"/><polygon class="b" points="668.7 1209.4 646.6 1149.8 685.4 1163.9 684.5 1163.6 684.9 1162.3 684.4 1161.4 647.5 1148 646.2 1148.6 669.8 1212.3 676.7 1193.3 711.1 1273 713.3 1273 676.5 1187.9 668.7 1209.4"/><polygon class="b" points="646.6 1155.4 644.2 1148.9 644.2 1148.9 646.6 1155.4"/><polygon class="b" points="687.8 1162.7 687.1 1162.4 687.6 1163.4 687.8 1162.7"/><polygon class="b" points="685.1 1161.7 685.3 1161.7 684.4 1161.4 684.4 1161.4 684.9 1162.3 685.1 1161.7"/><polygon class="b" points="686.6 1165.9 687.1 1164.5 685.7 1164 686.6 1165.9"/><polygon class="b" points="685.1 1161.7 684.9 1162.3 684.5 1163.6 685.4 1163.9 685.6 1164 685.7 1164 687.1 1164.5 688.3 1165 687.8 1163.9 687.6 1163.4 687.1 1162.4 687 1162.1 685.3 1161.7 685.1 1161.7"/><polygon class="b" points="654.9 1248 654.8 1247.7 645.6 1273 647.8 1273 655.9 1250.6 654.9 1248"/><polygon class="b" points="642.4 1148.3 623.9 1141.3 619.3 1155 624.2 1141.7 642.4 1148.3"/><polygon class="b" points="616.2 1158 617.5 1154.3 574.3 1273 576.5 1273 617.3 1160.6 616.2 1158"/><polygon class="b" points="617.3 1160.6 654.8 1247.7 654.9 1248 655.9 1250.6 661.7 1266.2 686.3 1257.1 669.8 1212.3 646.2 1148.6 645 1149.2 644.2 1148.9 646.6 1155.4 683.8 1255.9 662.8 1263.6 656.8 1247.3 618.3 1157.9 619.3 1155 623.9 1141.3 642.4 1148.3 642.4 1148.3 643 1146.4 643.4 1146.5 622.7 1138.7 617.5 1154.3 616.2 1158 617.3 1160.6"/><polygon class="b" points="643 1146.4 642.4 1148.3 644.2 1148.9 644.2 1148.9 645 1149.2 646.2 1148.6 647.5 1148 648.2 1147.7 643.4 1146.5 643 1146.4"/><path class="b" d="M1044.8,1041.3a33.7,33.7,0,0,0,18.2,9.6v-2a32,32,0,0,1-16.3-54.3,31.4,31.4,0,0,1,16.3-8.5v-2a33.2,33.2,0,0,0-17.7,9.1A34.1,34.1,0,0,0,1044.8,1041.3Z"/><path class="b" d="M965.5,1029.9a34,34,0,0,0-8,67.6l4,.2a34,34,0,0,0,4-67.8Zm27.8,37.5a32,32,0,1,1-31.9-35.7l3.8.2A32.1,32.1,0,0,1,993.3,1067.4Z"/><polygon class="b" points="923.1 1081.7 921.5 1093.1 921.8 1093.1 923.1 1081.7 923.1 1081.7 923.1 1081.7"/><polygon class="b" points="726.4 937 721.9 977.5 651.8 966.9 644.9 995.6 718.2 1011.2 714.7 1043 639.9 1040.1 638.6 1070.1 711 1076.7 706.5 1117.6 798.3 1107.1 795.8 1097.4 797.8 1105.2 708.7 1115.3 713.2 1074.9 640.7 1068.3 641.8 1042.2 716.5 1045.1 720.4 1009.6 647.3 994.1 653.3 969.1 723.7 979.8 728.1 940 893.4 1012.3 893.7 1012.4 1007.5 975.6 1013.7 997.5 924.4 1025.9 927.5 1027.2 922.3 1071.7 922.3 1071.7 922.4 1070.9 924.4 1070.6 929.6 1026.3 1016.2 998.8 1008.8 973.1 893.8 1010.3 726.4 937"/><polygon class="b" points="922.3 1071.7 922.3 1071.7 921.8 1075.9 922.3 1071.7"/><polygon class="b" points="921.2 1081.4 921.2 1081.4 918.5 1099.9 805 1125.1 797.8 1097.4 796.5 1097.7 796.4 1097.3 795.8 1097.4 798.3 1107.1 803.6 1127.5 920.3 1101.5 921.5 1093.1 923.1 1081.7 921.2 1081.4"/><polygon class="b" points="922.3 1071.7 921.8 1075.9 921.2 1081.4 921.2 1081.4 923.1 1081.7 923.1 1081.7 923.1 1081.7 924.7 1070.5 924.4 1070.6 922.4 1070.9 922.3 1071.7"/><polygon class="b" points="893 1076.9 796.1 1095.7 796.4 1097.3 796.5 1097.7 797.8 1097.4 893.4 1078.9 893 1076.9"/><polygon class="b" points="175.3 287.4 101.5 241.2 100.5 242.8 175.5 289.8 176 289 176.5 288.2 175.3 287.4"/><polygon class="b" points="954.9 82.7 954.2 82.9 953.1 83.3 989.1 180.3 990.9 179.7 955.1 83.2 954.9 82.7"/></svg>
