<svg xmlns="http://www.w3.org/2000/svg" xmlns:xlink="http://www.w3.org/1999/xlink" viewBox="0 0 195.2 81.5"><defs><style>.a{fill:url(#a);}.b{fill:#fff;}</style><linearGradient id="a" x1="72.42" y1="2.91" x2="93.58" y2="34.99" gradientUnits="userSpaceOnUse"><stop offset="0" stop-color="#fff"/><stop offset="0.06" stop-color="#fff" stop-opacity="0.94"/><stop offset="0.18" stop-color="#fff" stop-opacity="0.79"/><stop offset="0.34" stop-color="#fff" stop-opacity="0.55"/><stop offset="0.54" stop-color="#fff" stop-opacity="0.21"/><stop offset="0.66" stop-color="#fff" stop-opacity="0"/></linearGradient></defs><title>SingerAplicationLogo_whiteText_whiteAccent</title><path class="a" d="M102.2,14l-2.9,2.1a16.4,16.4,0,1,0-24,17.6l-2.9,2.1A19.6,19.6,0,0,1,83.4,0,19.6,19.6,0,0,1,102.2,14Z"/><path class="b" d="M166.8,57.7a29.6,29.6,0,0,1-2-7.2A90.8,90.8,0,0,1,163.6,29c.3-4.2.6-8.5,1.1-12.7l.6-4a1,1,0,0,0-.9-1.3q-.9-.1-1.2.9a1.7,1.7,0,0,1-.1.7c-.4,2.4-.7,4.9-1,7.3a145.3,145.3,0,0,0-.8,16.2l-.5-.3a3.9,3.9,0,0,0-5.2,1,11.7,11.7,0,0,0-1.9,3c-1.6,3.5-1.8,7.3-2,11.1,0,1.4,0,1.4-1.5,1.5s-1.4-.1-1.3-1.4.1-.2.1-.4l.9-4.2a6.2,6.2,0,0,0-.8-5.1c-.6-.7-.9-1.6-1.5-2.4a8,8,0,0,1-1.4-4.8,1.1,1.1,0,0,0-.9-1.2c-.6-.2-1,.2-1.3.7a3.4,3.4,0,0,0,0,2.8,3.9,3.9,0,0,1,.2,1.5,63.2,63.2,0,0,1-3.4,15.5c-.2.4-.3.3-.5.1a3.3,3.3,0,0,1-.7-1.6,20.9,20.9,0,0,1-.6-5.6,54.7,54.7,0,0,1,1-8c0-.6-.1-1.1-.8-1.3a1,1,0,0,0-1.2.7,6.1,6.1,0,0,0-.5,1.8c0,.1,0,.4-.3.3s-2.5.5-3.4,1.4a13.7,13.7,0,0,0-3,9.3c0,.5.6,1.2.1,1.6a5.2,5.2,0,0,1-1.8.3c-1.1,0-1.3-.2-1.1-1.3s.7-3.4,1-5.2a5.4,5.4,0,0,0-.7-4.3c-.6-.8-1-1.7-1.6-2.6a7.4,7.4,0,0,1-1.4-4.6c0-.2-.1-.4-.1-.6a1.1,1.1,0,0,0-1.9-.5,2.8,2.8,0,0,0-.5,2.2,9.2,9.2,0,0,1,.4,2.9,72.3,72.3,0,0,1-2.4,12.3c-.1.2-.1.5-.5.5a.6.6,0,0,1-.7-.4,1,1,0,0,0-1.6-.1c-.1.2-.2.4-.5.4h-5.4a24.4,24.4,0,0,0,4-7.2,9.5,9.5,0,0,0,.4-5,2.6,2.6,0,0,0-1.6-2.5,2.9,2.9,0,0,0-2.9.8,6.8,6.8,0,0,0-2.1,2.9,18.3,18.3,0,0,0-1.1,10.6c.1.4,0,.5-.4.6h-2.5c-.4.1-.6-.1-.6-.5s-.3-1.7-.5-2.6a19.8,19.8,0,0,0-3.5-8,2.4,2.4,0,0,0-2.7-.9,13,13,0,0,0-3.2,1.4c-3.1,1.8-6.2,3.6-9.4,5.3a20.6,20.6,0,0,1-6.5,2.6,3,3,0,0,1-3.9-2.4,7.6,7.6,0,0,1-.1-3,23.5,23.5,0,0,1,4.7-10.4c3.4-4.8,7.7-8.6,13.6-10.1a14.4,14.4,0,0,1,5-.7c2.2.2,2.5,1,2.5,2.3s.1.2.1.3.6,1.1,1.2.9a1,1,0,0,0,.9-1.2c-.4-2.5-1.3-4-3.9-4.6a9.3,9.3,0,0,0-2.3-.2,24,24,0,0,0-10.1,3.6c-6.8,4.3-11,10.6-13.4,18.2a10.2,10.2,0,0,0-.2,6,4.8,4.8,0,0,0,4.7,3.6,13,13,0,0,0,3.3-.7,42.3,42.3,0,0,0,8.3-4c3-1.5,5.7-3.5,8.9-4.7.5-.1.7-.1,1,.3a7.9,7.9,0,0,1,1.4,2.3,32.2,32.2,0,0,1,2,6.7c.1.7,0,.9-.7,1a90.9,90.9,0,0,0-12.6,2.6,43.8,43.8,0,0,0-10.4,4c-3,1.8-5.5,3.9-7,7.1a5.1,5.1,0,0,0-.6,2.7,12.7,12.7,0,0,0,5.2,9.5,22.5,22.5,0,0,0,13.5,3.7c5.4-.1,9.3-2.6,12-7.2a27.9,27.9,0,0,0,3.2-12,36.6,36.6,0,0,0-.1-8.1c-.1-.5,0-.8.6-.8h2.5a1.1,1.1,0,0,1,1.3.6c1.7,2.7,4.2,3.1,6.6,1l1.5-1.3c.4-.5.9-.2,1.4-.2s.1.5.1.8.3,1,.9,1.1a1.3,1.3,0,0,0,1.2-.9,77.4,77.4,0,0,0,2.8-10.5l.6-3.3a6.3,6.3,0,0,1,1.6,5.7,11.6,11.6,0,0,1-.4,1.8,25.8,25.8,0,0,0-.6,3.7,2.2,2.2,0,0,0,1.6,2.3,13.2,13.2,0,0,0,4.4.2c.4,0,.6-.5,1-.5A3.2,3.2,0,0,0,136,52a14.2,14.2,0,0,0,1.1-1.8c.1.4.1.7.2,1a9.2,9.2,0,0,0,1,3.2,3,3,0,0,0,2.7,1.4c.8,0,1.4-.8,1.7-1.5a69.8,69.8,0,0,0,2.3-7.8c.4-2,.8-4,1.1-6.1a6.9,6.9,0,0,1,1.6,6.5,17.9,17.9,0,0,0-.9,4.6q0,2.6,2.4,2.7h2.9a.8.8,0,0,1,.7.2c1.8,2.1,3.8,2.2,5.8.3a16.7,16.7,0,0,0,3.4-4.5c.1-.3.2-.7.6-.7a42.8,42.8,0,0,0,2.7,8.8c.2.7.7,1,1.2.8S167.1,58.3,166.8,57.7Zm-65,13.8a17.4,17.4,0,0,1-3.5,5,10.5,10.5,0,0,1-6,2.6,20.7,20.7,0,0,1-12.7-2.2,12.7,12.7,0,0,1-4.7-4.8,6.5,6.5,0,0,1,.4-7.3,16.7,16.7,0,0,1,7.1-5.5,70.6,70.6,0,0,1,19.1-5.4l1.5-.2c.5-.2.7.1.7.6s.3,3.3.3,5.6A30.9,30.9,0,0,1,101.8,71.5Zm9-22.3c-.2-3.2-.3-6.4,1.4-9.3.3-.3.5-.7.9-.9s1-.6,1.4.3a2.6,2.6,0,0,1,.2,1.5A19.1,19.1,0,0,1,110.8,49.2Zm1.2,3.9h3.6A2.1,2.1,0,0,1,112,53.1Zm25.2-10.5c-.7,2.8-1.2,5.5-2.6,8a2.4,2.4,0,0,1-.6.8c-.1.2-.2.4-.5.4s-.3-.4-.3-.6a7.5,7.5,0,0,1-.2-2.1,11.2,11.2,0,0,1,1.2-5.4,3.5,3.5,0,0,1,1.9-1.9A.7.7,0,0,1,137.2,42.6Zm24.2,4.8c-1,1.6-1.7,3.3-2.8,4.9a3.7,3.7,0,0,1-2.9,1.6c-.5,0-.7-.1-.9-.5a8.3,8.3,0,0,1-1.1-5.1,24.6,24.6,0,0,1,2.5-8.9,4.7,4.7,0,0,1,.6-.9c.6-.9,1.3-1.6,2.5-1.3a3.2,3.2,0,0,1,2.5,2.1,19.7,19.7,0,0,1,.5,4.4A5.4,5.4,0,0,1,161.4,47.4Z"/><path class="b" d="M22.9,44.8a55,55,0,0,0-8.2-8.5,30.6,30.6,0,0,1-5.2-5.6,6,6,0,0,1,.2-7.6,24.7,24.7,0,0,1,7.5-6.5,17.2,17.2,0,0,1,6.9-2.7c.8-.2,1.2-.6,1.1-1.2s-.6-1-1.4-1h-.4a18.6,18.6,0,0,0-7.1,3,36.6,36.6,0,0,0-8.1,6.6,8,8,0,0,0-1.1,9.4,18.8,18.8,0,0,0,3.1,4.3c2.4,2.6,5.2,4.9,7.9,7.3A21.2,21.2,0,0,1,21.9,47h-.8A38.6,38.6,0,0,0,6,49.5,9.3,9.3,0,0,0,.6,54.4a4.5,4.5,0,0,0,.5,5.2,9.7,9.7,0,0,0,9.6,3.7,19,19,0,0,0,13.2-9.1,6.8,6.8,0,0,0,.2-7.4ZM22.2,53A15.4,15.4,0,0,1,9.6,61.2a8.2,8.2,0,0,1-5.5-1.5,3.6,3.6,0,0,1-.9-5.6,7.5,7.5,0,0,1,3.5-2.6,34.9,34.9,0,0,1,12.8-2.3h2.7c.4,0,.5.1.6.5A5.3,5.3,0,0,1,22.2,53Z"/><path class="b" d="M195.2,52.9c-.2-.5-.8-.7-1.5-.5l-3,.7c-.3.1-.4.1-.5-.3a52.1,52.1,0,0,1-2.4-6.6c-.5-2.5-.9-4.9-.2-7.4s.3-2.3.4-3.5-.1-1-.7-1.1a1.1,1.1,0,0,0-1.3.6c-.1.3-.1.6-.2.9s-.2,2.8-.7,4.1c-1.5,4.4-2.2,9.3-5.9,12.8a1.3,1.3,0,0,1-1.8.1,2.4,2.4,0,0,1-.7-1.3,16.8,16.8,0,0,1-.2-5c.2-1.8.4-3.6.5-5.4s0-1.2-.8-1.4a1.3,1.3,0,0,0-1.4,1.1c-.4,1.5-.8,3.1-1.3,4.6a22.2,22.2,0,0,1-2.4,6.2,4.1,4.1,0,0,1-1.5,1.7c-.3.3-.6.3-.7-.2a2.9,2.9,0,0,1-.2-.9,32,32,0,0,1-.1-4.4l.6-7.2a1,1,0,0,0-.9-1.3c-.6-.1-1.1.4-1.2,1.1a6.6,6.6,0,0,0-.1,1.4,51.4,51.4,0,0,0-.5,8.8c0,1.7.1,3.3,1.3,4.7a1.4,1.4,0,0,0,1.7.4,6,6,0,0,0,2.8-2.1,18.7,18.7,0,0,0,1.7-3.1c.1-.2.1-.5.4-.7a7.9,7.9,0,0,0,1,4,3.6,3.6,0,0,0,5.6.3,31.4,31.4,0,0,0,4.4-7.8c.4,1.2.8,2.3,1.3,3.5s.8,2.3,1.3,3.5.1.6-.4.7a22.9,22.9,0,0,0-2.8.9,10.9,10.9,0,0,0-4.1,2.9,2.2,2.2,0,0,0-.1,3,5.3,5.3,0,0,0,5.8,2c3.2-.9,4.8-3.3,4.5-6.7,0-.7.2-.9.8-1a13.1,13.1,0,0,0,2.7-.6A1.1,1.1,0,0,0,195.2,52.9Zm-10.5,7.8a2.9,2.9,0,0,1-1.9-.8c-.4-.4-.5-.6-.1-1.1a8.8,8.8,0,0,1,4.1-2.5l.6-.2c1.4-.5,1.4-.4,1.5,1S187.1,60.7,184.7,60.7Z"/><path class="b" d="M37.3,54.1,35.5,56a6.6,6.6,0,0,1-2,1.4,2.7,2.7,0,0,1-3.7-1.1,17.3,17.3,0,0,1-1-2.4v1.6c-.1.8-.5,1.1-1.1,1.1a1.1,1.1,0,0,1-1-1.2c.5-5.3,1-10.5,1.4-15.7a1,1,0,0,1,1.2-1c.6,0,.9.5.9,1.1s0,2.5,0,3.7A42.6,42.6,0,0,0,31,53.6l.3,1.1c.4,1,1,1.2,2,.6a11,11,0,0,0,2.1-2.2c.3-.4.7-.8,1.3-.6s.3-.1.3-.3a94.7,94.7,0,0,1-.1-11.9,1.4,1.4,0,0,1,.3-1.1,1,1,0,0,1,1-.3A1.1,1.1,0,0,1,39,40v2.3a54.2,54.2,0,0,1-.1,5.7.7.7,0,0,0,.2.6,28.6,28.6,0,0,1,2.2-4.7l1-1.6a1.6,1.6,0,0,1,1.8-.8c.7.1,1,.6,1.3,1.2a36.3,36.3,0,0,1,1.3,5.7,7.2,7.2,0,0,0,2,4.2.8.8,0,0,1,0,1.3,1,1,0,0,1-1.5.2,6.9,6.9,0,0,1-1.6-2.2,30.8,30.8,0,0,1-1.4-6c-.2-.6-.3-1.2-.5-1.9a19.9,19.9,0,0,0-1.2,1.9,71.9,71.9,0,0,0-2.7,7.8,1.9,1.9,0,0,0-.2.7c-.2.5-.3,1-.9,1a1.3,1.3,0,0,1-1.2-.9C37.4,54.4,37.4,54.3,37.3,54.1Z"/><path class="b" d="M51.8,40.1a30.9,30.9,0,0,0,4.3-1.4l.6-.2c.5-.1,1-.1,1.2.4a1.1,1.1,0,0,1-.3,1.4,1.1,1.1,0,0,1-.7.3A25.4,25.4,0,0,1,52.2,42c-.3.1-.6.1-.6.6a57.1,57.1,0,0,0-.3,8.3,8.9,8.9,0,0,0,.7,3.6,1.5,1.5,0,0,0,1.8,1.1,4.1,4.1,0,0,0,2.1-1l2.1-2c.6-.6,1.2-.6,1.6-.1a1.1,1.1,0,0,1-.2,1.6,19.8,19.8,0,0,1-4.7,3.3,3,3,0,0,1-4.5-1.6,15.4,15.4,0,0,1-1-6.7c0-2.1.1-4.1.2-6.2,0-.5-.1-.6-.6-.7a3.4,3.4,0,0,1-2.3-1,1.1,1.1,0,0,1,.1-1.7,1.3,1.3,0,0,1,2,.3c.2.3.4.5.7.4s.3-.5.3-.7c.4-4.1.7-8.3,1.5-12.4.2-.8.6-1.2,1.2-1.1a1.1,1.1,0,0,1,.9,1.5c-.7,4-1,7.9-1.4,11.9C51.7,39.6,51.8,39.8,51.8,40.1Z"/><path class="b" d="M69.3,41.4c1.1-.1,1.7.3,1.7.9s-.3,1-1.1,1.1c-3,.5-5.9.9-8.8,1.1-.8,0-1.3-.3-1.4-.9a1.3,1.3,0,0,1,1-1.2Z"/><path class="b" d="M28.7,35.3c-.8,0-1.2-.3-1.2-1s.5-1,1.2-1,1.3.4,1.3.9A1.2,1.2,0,0,1,28.7,35.3Z"/></svg>
